<svg width="759" height="36" viewBox="0 0 759 36" fill="none" xmlns="http://www.w3.org/2000/svg">
<rect width="151" height="36" rx="5" fill="#F7F1E9"/>
<path d="M26 8L28.7812 13.9252L35 14.8754L30.5 19.4875L31.5623 26L26 22.9252L20.4377 26L21.5 19.4875L17 14.8754L23.2188 13.9252L26 8Z" fill="#D5B753"/>
<path d="M42.88 15.84H44.58C44.5667 15.4133 44.6067 14.9933 44.7 14.58C44.8067 14.1533 44.9733 13.7733 45.2 13.44C45.4267 13.1067 45.7133 12.84 46.06 12.64C46.42 12.4267 46.8467 12.32 47.34 12.32C47.7133 12.32 48.0667 12.38 48.4 12.5C48.7333 12.62 49.02 12.7933 49.26 13.02C49.5133 13.2467 49.7133 13.52 49.86 13.84C50.0067 14.1467 50.08 14.4933 50.08 14.88C50.08 15.3733 50 15.8067 49.84 16.18C49.6933 16.5533 49.4667 16.9 49.16 17.22C48.8667 17.54 48.4933 17.86 48.04 18.18C47.5867 18.4867 47.06 18.8267 46.46 19.2C45.9667 19.4933 45.4933 19.8067 45.04 20.14C44.5867 20.4733 44.18 20.86 43.82 21.3C43.46 21.74 43.16 22.26 42.92 22.86C42.6933 23.4467 42.5467 24.16 42.48 25H51.74V23.5H44.46C44.54 23.06 44.7067 22.6733 44.96 22.34C45.2267 21.9933 45.54 21.6733 45.9 21.38C46.2733 21.0867 46.68 20.8133 47.12 20.56C47.56 20.2933 48 20.0267 48.44 19.76C48.88 19.48 49.3067 19.1867 49.72 18.88C50.1333 18.5733 50.5 18.2333 50.82 17.86C51.14 17.4733 51.3933 17.04 51.58 16.56C51.78 16.08 51.88 15.5267 51.88 14.9C51.88 14.2333 51.76 13.6467 51.52 13.14C51.2933 12.6333 50.98 12.2133 50.58 11.88C50.18 11.5333 49.7067 11.2733 49.16 11.1C48.6267 10.9133 48.0533 10.82 47.44 10.82C46.6933 10.82 46.0267 10.9467 45.44 11.2C44.8533 11.4533 44.36 11.8067 43.96 12.26C43.5733 12.7 43.2867 13.2267 43.1 13.84C42.9133 14.4533 42.84 15.12 42.88 15.84ZM53.9133 18.64V20.24H59.6933V18.64H53.9133ZM67.2667 20.18H62.5067L67.2267 13.24H67.2667V20.18ZM68.8667 20.18V10.82H67.5067L61.0467 20.04V21.68H67.2667V25H68.8667V21.68H70.7867V20.18H68.8667ZM77.9664 25.12C77.7931 25.12 77.6131 25.1 77.4264 25.06C77.2397 25.0333 77.0864 25.0067 76.9664 24.98V23.48C77.0997 23.52 77.2197 23.5467 77.3264 23.56C77.4464 23.5733 77.5597 23.58 77.6664 23.58C78.1064 23.58 78.4397 23.4067 78.6664 23.06C78.9064 22.7133 79.0797 22.18 79.1864 21.46C79.3064 20.74 79.3797 19.82 79.4064 18.7C79.4331 17.5667 79.4597 16.22 79.4864 14.66H86.7464V25H85.0464V16.16H81.1264C81.0864 17.3733 81.0397 18.5267 80.9864 19.62C80.9464 20.7 80.8331 21.6467 80.6464 22.46C80.4597 23.2733 80.1597 23.92 79.7464 24.4C79.3331 24.88 78.7397 25.12 77.9664 25.12ZM89.1159 14.66H90.8159V23.1L95.6959 14.66H97.8759V25H96.1759V16.56L91.2959 25H89.1159V14.66ZM106.124 24.22C106.004 24.34 105.857 24.46 105.684 24.58C105.511 24.7 105.324 24.8067 105.124 24.9C104.937 24.9933 104.737 25.0667 104.524 25.12C104.324 25.1867 104.124 25.22 103.924 25.22C103.151 25.22 102.497 25.0667 101.964 24.76C101.444 24.4533 101.017 24.0467 100.684 23.54C100.364 23.02 100.131 22.4267 99.9841 21.76C99.8374 21.0933 99.7641 20.4 99.7641 19.68C99.7641 18.0267 100.124 16.74 100.844 15.82C101.564 14.8867 102.544 14.42 103.784 14.42C103.997 14.42 104.217 14.4533 104.444 14.52C104.684 14.5867 104.904 14.6733 105.104 14.78C105.317 14.8867 105.511 15.0067 105.684 15.14C105.871 15.2733 106.017 15.4067 106.124 15.54V10.72H107.804V15.54C107.911 15.4067 108.051 15.2733 108.224 15.14C108.397 15.0067 108.591 14.8867 108.804 14.78C109.017 14.6733 109.237 14.5867 109.464 14.52C109.691 14.4533 109.917 14.42 110.144 14.42C111.384 14.42 112.364 14.8867 113.084 15.82C113.804 16.74 114.164 18.0267 114.164 19.68C114.164 20.4 114.091 21.0933 113.944 21.76C113.797 22.4267 113.557 23.02 113.224 23.54C112.904 24.0467 112.477 24.4533 111.944 24.76C111.424 25.0667 110.777 25.22 110.004 25.22C109.617 25.22 109.204 25.12 108.764 24.92C108.337 24.7067 108.017 24.4733 107.804 24.22V28.94H106.124V24.22ZM104.124 23.82C104.644 23.82 105.091 23.6933 105.464 23.44C105.837 23.1733 106.057 22.8533 106.124 22.48V17.28C106.044 17 105.924 16.7733 105.764 16.6C105.604 16.4133 105.424 16.2667 105.224 16.16C105.037 16.04 104.837 15.96 104.624 15.92C104.411 15.8667 104.211 15.84 104.024 15.84C103.584 15.84 103.204 15.94 102.884 16.14C102.577 16.3267 102.317 16.5933 102.104 16.94C101.904 17.2733 101.757 17.68 101.664 18.16C101.571 18.64 101.524 19.16 101.524 19.72C101.524 20.2 101.564 20.6867 101.644 21.18C101.724 21.66 101.857 22.1 102.044 22.5C102.244 22.8867 102.511 23.2067 102.844 23.46C103.177 23.7 103.604 23.82 104.124 23.82ZM109.804 23.82C110.324 23.82 110.751 23.7 111.084 23.46C111.417 23.2067 111.677 22.8867 111.864 22.5C112.064 22.1 112.204 21.66 112.284 21.18C112.364 20.6867 112.404 20.2 112.404 19.72C112.404 19.16 112.357 18.64 112.264 18.16C112.171 17.68 112.017 17.2733 111.804 16.94C111.604 16.5933 111.344 16.3267 111.024 16.14C110.717 15.94 110.344 15.84 109.904 15.84C109.717 15.84 109.517 15.8667 109.304 15.92C109.091 15.96 108.884 16.04 108.684 16.16C108.497 16.2667 108.324 16.4133 108.164 16.6C108.004 16.7733 107.884 17 107.804 17.28V22.48C107.871 22.8533 108.091 23.1733 108.464 23.44C108.837 23.6933 109.284 23.82 109.804 23.82ZM118.54 16.16H114.84V14.66H123.94V16.16H120.24V25H118.54V16.16ZM127.958 25.22C127.491 25.22 127.051 25.1667 126.638 25.06C126.225 24.9667 125.858 24.8067 125.538 24.58C125.231 24.34 124.985 24.04 124.798 23.68C124.625 23.3067 124.538 22.86 124.538 22.34C124.538 21.7533 124.638 21.2733 124.838 20.9C125.038 20.5267 125.298 20.2267 125.618 20C125.951 19.76 126.325 19.58 126.738 19.46C127.165 19.34 127.598 19.24 128.038 19.16C128.505 19.0667 128.945 19 129.358 18.96C129.785 18.9067 130.158 18.84 130.478 18.76C130.798 18.6667 131.051 18.54 131.238 18.38C131.425 18.2067 131.518 17.96 131.518 17.64C131.518 17.2667 131.445 16.9667 131.298 16.74C131.165 16.5133 130.985 16.34 130.758 16.22C130.545 16.1 130.298 16.02 130.018 15.98C129.751 15.94 129.485 15.92 129.218 15.92C128.498 15.92 127.898 16.06 127.418 16.34C126.938 16.6067 126.678 17.12 126.638 17.88H124.938C124.965 17.24 125.098 16.7 125.338 16.26C125.578 15.82 125.898 15.4667 126.298 15.2C126.698 14.92 127.151 14.72 127.658 14.6C128.178 14.48 128.731 14.42 129.318 14.42C129.785 14.42 130.245 14.4533 130.698 14.52C131.165 14.5867 131.585 14.7267 131.958 14.94C132.331 15.14 132.631 15.4267 132.858 15.8C133.085 16.1733 133.198 16.66 133.198 17.26V22.58C133.198 22.98 133.218 23.2733 133.258 23.46C133.311 23.6467 133.471 23.74 133.738 23.74C133.858 23.74 134.031 23.7067 134.258 23.64V24.96C133.965 25.1333 133.558 25.22 133.038 25.22C132.598 25.22 132.245 25.1 131.978 24.86C131.725 24.6067 131.598 24.2 131.598 23.64C131.131 24.2 130.585 24.6067 129.958 24.86C129.345 25.1 128.678 25.22 127.958 25.22ZM128.338 23.74C128.898 23.74 129.378 23.6667 129.778 23.52C130.178 23.36 130.505 23.1667 130.758 22.94C131.011 22.7 131.198 22.4467 131.318 22.18C131.438 21.9 131.498 21.64 131.498 21.4V19.66C131.285 19.8333 131.005 19.9533 130.658 20.02C130.311 20.0867 129.945 20.1467 129.558 20.2C129.185 20.2533 128.805 20.3067 128.418 20.36C128.031 20.4133 127.685 20.5067 127.378 20.64C127.071 20.7733 126.818 20.9667 126.618 21.22C126.431 21.46 126.338 21.7933 126.338 22.22C126.338 22.5 126.391 22.74 126.498 22.94C126.618 23.1267 126.765 23.28 126.938 23.4C127.125 23.52 127.338 23.6067 127.578 23.66C127.818 23.7133 128.071 23.74 128.338 23.74Z" fill="#1A1A1A"/>
<rect x="159" width="303" height="36" rx="5" fill="#F7F1E9"/>
<path d="M185 8L187.781 13.9252L194 14.8754L189.5 19.4875L190.562 26L185 22.9252L179.438 26L180.5 19.4875L176 14.8754L182.219 13.9252L185 8Z" fill="#D5B753"/>
<path d="M202.68 10.72H211.96V12.32H204.58V25H202.68V10.72ZM213.136 14.66H214.836V16.06H214.876C215.156 15.4867 215.596 15.0733 216.196 14.82C216.796 14.5533 217.456 14.42 218.176 14.42C218.976 14.42 219.669 14.5667 220.256 14.86C220.856 15.1533 221.349 15.5533 221.736 16.06C222.136 16.5533 222.436 17.1267 222.636 17.78C222.836 18.4333 222.936 19.1267 222.936 19.86C222.936 20.6067 222.836 21.3067 222.636 21.96C222.449 22.6 222.156 23.1667 221.756 23.66C221.369 24.14 220.876 24.52 220.276 24.8C219.689 25.08 219.003 25.22 218.216 25.22C217.949 25.22 217.663 25.1933 217.356 25.14C217.049 25.0867 216.743 25 216.436 24.88C216.129 24.76 215.836 24.6 215.556 24.4C215.289 24.1867 215.063 23.9267 214.876 23.62H214.836V28.94H213.136V14.66ZM218.036 23.74C218.609 23.74 219.096 23.6267 219.496 23.4C219.896 23.1733 220.216 22.8733 220.456 22.5C220.696 22.1267 220.869 21.7 220.976 21.22C221.083 20.74 221.136 20.2467 221.136 19.74C221.136 19.26 221.069 18.7933 220.936 18.34C220.816 17.8733 220.623 17.46 220.356 17.1C220.103 16.74 219.769 16.4533 219.356 16.24C218.956 16.0267 218.483 15.92 217.936 15.92C217.363 15.92 216.876 16.0333 216.476 16.26C216.076 16.4867 215.749 16.7867 215.496 17.16C215.243 17.52 215.056 17.9333 214.936 18.4C214.829 18.8667 214.776 19.34 214.776 19.82C214.776 20.3267 214.836 20.82 214.956 21.3C215.076 21.7667 215.263 22.18 215.516 22.54C215.783 22.9 216.123 23.1933 216.536 23.42C216.949 23.6333 217.449 23.74 218.036 23.74ZM225.792 29.12C225.592 29.12 225.392 29.1067 225.192 29.08C224.992 29.0533 224.798 29.0067 224.612 28.94V27.38C224.772 27.4333 224.932 27.4867 225.092 27.54C225.265 27.5933 225.438 27.62 225.612 27.62C225.958 27.62 226.238 27.54 226.452 27.38C226.665 27.22 226.852 26.9867 227.012 26.68L227.712 24.94L223.612 14.66H225.532L228.552 23.12H228.592L231.492 14.66H233.292L228.792 26.36C228.592 26.8667 228.392 27.2933 228.192 27.64C228.005 27.9867 227.792 28.2667 227.552 28.48C227.325 28.7067 227.065 28.8667 226.772 28.96C226.492 29.0667 226.165 29.12 225.792 29.12ZM238.332 25.22C236.958 25.22 235.885 24.9133 235.112 24.3C234.338 23.6867 233.918 22.8133 233.852 21.68H235.572C235.625 22.44 235.905 22.9867 236.412 23.32C236.918 23.6533 237.552 23.82 238.312 23.82C239.125 23.82 239.752 23.6467 240.192 23.3C240.632 22.9533 240.852 22.5133 240.852 21.98C240.852 21.46 240.685 21.0533 240.352 20.76C240.018 20.4667 239.452 20.32 238.652 20.32H237.272V18.94H238.372C238.972 18.94 239.485 18.82 239.912 18.58C240.338 18.3267 240.552 17.8933 240.552 17.28C240.552 16.8933 240.365 16.5533 239.992 16.26C239.632 15.9667 239.092 15.82 238.372 15.82C238.065 15.82 237.758 15.8533 237.452 15.92C237.158 15.9867 236.892 16.0933 236.652 16.24C236.412 16.3867 236.212 16.58 236.052 16.82C235.892 17.06 235.792 17.3533 235.752 17.7H234.032C234.072 17.06 234.225 16.5333 234.492 16.12C234.758 15.6933 235.092 15.36 235.492 15.12C235.892 14.8667 236.345 14.6867 236.852 14.58C237.358 14.4733 237.872 14.42 238.392 14.42C238.925 14.42 239.425 14.4733 239.892 14.58C240.358 14.6867 240.765 14.86 241.112 15.1C241.472 15.3267 241.752 15.6133 241.952 15.96C242.165 16.3067 242.272 16.72 242.272 17.2C242.272 17.8 242.098 18.2867 241.752 18.66C241.418 19.0333 241.038 19.2667 240.612 19.36V19.4C240.852 19.44 241.092 19.52 241.332 19.64C241.572 19.76 241.785 19.9267 241.972 20.14C242.158 20.34 242.312 20.5933 242.432 20.9C242.552 21.1933 242.612 21.54 242.612 21.94C242.612 22.5 242.492 22.9867 242.252 23.4C242.012 23.8133 241.692 24.1533 241.292 24.42C240.892 24.6867 240.432 24.8867 239.912 25.02C239.405 25.1533 238.878 25.22 238.332 25.22ZM248.909 25.22C248.082 25.22 247.355 25.0867 246.729 24.82C246.115 24.54 245.595 24.16 245.169 23.68C244.742 23.1867 244.422 22.6133 244.209 21.96C243.995 21.3067 243.889 20.6 243.889 19.84C243.889 19.08 243.995 18.3733 244.209 17.72C244.422 17.0533 244.742 16.48 245.169 16C245.595 15.5067 246.115 15.12 246.729 14.84C247.355 14.56 248.082 14.42 248.909 14.42C249.722 14.42 250.442 14.56 251.069 14.84C251.695 15.12 252.222 15.5067 252.649 16C253.075 16.48 253.395 17.0533 253.609 17.72C253.822 18.3733 253.929 19.08 253.929 19.84C253.929 20.6 253.822 21.3067 253.609 21.96C253.395 22.6133 253.075 23.1867 252.649 23.68C252.222 24.16 251.695 24.54 251.069 24.82C250.442 25.0867 249.722 25.22 248.909 25.22ZM248.909 23.74C249.349 23.74 249.762 23.6533 250.149 23.48C250.549 23.3067 250.895 23.06 251.189 22.74C251.482 22.4067 251.709 22 251.869 21.52C252.042 21.0267 252.129 20.4667 252.129 19.84C252.129 19.2133 252.042 18.66 251.869 18.18C251.709 17.6867 251.482 17.2733 251.189 16.94C250.895 16.6067 250.549 16.3533 250.149 16.18C249.762 16.0067 249.349 15.92 248.909 15.92C248.469 15.92 248.049 16.0067 247.649 16.18C247.262 16.3533 246.922 16.6067 246.629 16.94C246.335 17.2733 246.102 17.6867 245.929 18.18C245.769 18.66 245.689 19.2133 245.689 19.84C245.689 20.4667 245.769 21.0267 245.929 21.52C246.102 22 246.335 22.4067 246.629 22.74C246.922 23.06 247.262 23.3067 247.649 23.48C248.049 23.6533 248.469 23.74 248.909 23.74ZM255.733 14.66H260.513C260.966 14.66 261.4 14.6933 261.813 14.76C262.24 14.8267 262.62 14.9533 262.953 15.14C263.286 15.3133 263.553 15.5667 263.753 15.9C263.953 16.2333 264.053 16.66 264.053 17.18C264.053 17.74 263.92 18.1933 263.653 18.54C263.386 18.8867 263.013 19.1733 262.533 19.4V19.42C263.133 19.54 263.606 19.82 263.953 20.26C264.313 20.7 264.493 21.2667 264.493 21.96C264.493 22.4 264.413 22.8067 264.253 23.18C264.106 23.5533 263.893 23.8733 263.613 24.14C263.333 24.4067 263 24.62 262.613 24.78C262.226 24.9267 261.806 25 261.353 25H255.733V14.66ZM261.033 23.56C261.593 23.56 262.013 23.4 262.293 23.08C262.586 22.7467 262.733 22.3333 262.733 21.84C262.733 21.3733 262.58 21 262.273 20.72C261.966 20.44 261.453 20.3 260.733 20.3H257.413V23.56H261.033ZM260.333 18.9C261.066 18.9 261.573 18.7667 261.853 18.5C262.146 18.2333 262.293 17.88 262.293 17.44C262.293 17.0133 262.153 16.6867 261.873 16.46C261.593 16.22 261.08 16.1 260.333 16.1H257.413V18.9H260.333ZM266.334 14.66H268.034V18.62H271.234C272.247 18.62 273.061 18.9 273.674 19.46C274.287 20.0067 274.594 20.78 274.594 21.78C274.594 22.7533 274.301 23.5333 273.714 24.12C273.127 24.7067 272.327 25 271.314 25H266.334V14.66ZM270.694 23.5C272.121 23.5 272.834 22.9267 272.834 21.78C272.834 20.6467 272.121 20.08 270.694 20.08H268.034V23.5H270.694ZM276.234 14.66H277.934V25H276.234V14.66ZM284.694 25.22C283.867 25.22 283.141 25.0867 282.514 24.82C281.901 24.5533 281.387 24.18 280.974 23.7C280.561 23.22 280.247 22.6467 280.034 21.98C279.834 21.3133 279.734 20.5867 279.734 19.8C279.734 19.0267 279.854 18.3133 280.094 17.66C280.334 16.9933 280.667 16.42 281.094 15.94C281.534 15.46 282.047 15.0867 282.634 14.82C283.234 14.5533 283.887 14.42 284.594 14.42C285.514 14.42 286.274 14.6133 286.874 15C287.487 15.3733 287.974 15.8533 288.334 16.44C288.707 17.0267 288.961 17.6667 289.094 18.36C289.241 19.0533 289.301 19.7133 289.274 20.34H281.534C281.521 20.7933 281.574 21.2267 281.694 21.64C281.814 22.04 282.007 22.4 282.274 22.72C282.541 23.0267 282.881 23.2733 283.294 23.46C283.707 23.6467 284.194 23.74 284.754 23.74C285.474 23.74 286.061 23.5733 286.514 23.24C286.981 22.9067 287.287 22.4 287.434 21.72H289.114C288.887 22.8933 288.387 23.7733 287.614 24.36C286.841 24.9333 285.867 25.22 284.694 25.22ZM287.474 18.84C287.447 18.44 287.354 18.06 287.194 17.7C287.047 17.34 286.841 17.0333 286.574 16.78C286.321 16.5133 286.014 16.3067 285.654 16.16C285.307 16 284.921 15.92 284.494 15.92C284.054 15.92 283.654 16 283.294 16.16C282.947 16.3067 282.647 16.5133 282.394 16.78C282.141 17.0467 281.941 17.36 281.794 17.72C281.647 18.0667 281.561 18.44 281.534 18.84H287.474ZM296.203 14.66H297.903V23.1L302.783 14.66H304.963V25H303.263V16.56L298.383 25H296.203V14.66ZM312.697 14.66H321.137V25H319.437V16.16H314.397V25H312.697V14.66ZM326.353 25.22C325.887 25.22 325.447 25.1667 325.033 25.06C324.62 24.9667 324.253 24.8067 323.933 24.58C323.627 24.34 323.38 24.04 323.193 23.68C323.02 23.3067 322.933 22.86 322.933 22.34C322.933 21.7533 323.033 21.2733 323.233 20.9C323.433 20.5267 323.693 20.2267 324.013 20C324.347 19.76 324.72 19.58 325.133 19.46C325.56 19.34 325.993 19.24 326.433 19.16C326.9 19.0667 327.34 19 327.753 18.96C328.18 18.9067 328.553 18.84 328.873 18.76C329.193 18.6667 329.447 18.54 329.633 18.38C329.82 18.2067 329.913 17.96 329.913 17.64C329.913 17.2667 329.84 16.9667 329.693 16.74C329.56 16.5133 329.38 16.34 329.153 16.22C328.94 16.1 328.693 16.02 328.413 15.98C328.147 15.94 327.88 15.92 327.613 15.92C326.893 15.92 326.293 16.06 325.813 16.34C325.333 16.6067 325.073 17.12 325.033 17.88H323.333C323.36 17.24 323.493 16.7 323.733 16.26C323.973 15.82 324.293 15.4667 324.693 15.2C325.093 14.92 325.547 14.72 326.053 14.6C326.573 14.48 327.127 14.42 327.713 14.42C328.18 14.42 328.64 14.4533 329.093 14.52C329.56 14.5867 329.98 14.7267 330.353 14.94C330.727 15.14 331.027 15.4267 331.253 15.8C331.48 16.1733 331.593 16.66 331.593 17.26V22.58C331.593 22.98 331.613 23.2733 331.653 23.46C331.707 23.6467 331.867 23.74 332.133 23.74C332.253 23.74 332.427 23.7067 332.653 23.64V24.96C332.36 25.1333 331.953 25.22 331.433 25.22C330.993 25.22 330.64 25.1 330.373 24.86C330.12 24.6067 329.993 24.2 329.993 23.64C329.527 24.2 328.98 24.6067 328.353 24.86C327.74 25.1 327.073 25.22 326.353 25.22ZM326.733 23.74C327.293 23.74 327.773 23.6667 328.173 23.52C328.573 23.36 328.9 23.1667 329.153 22.94C329.407 22.7 329.593 22.4467 329.713 22.18C329.833 21.9 329.893 21.64 329.893 21.4V19.66C329.68 19.8333 329.4 19.9533 329.053 20.02C328.707 20.0867 328.34 20.1467 327.953 20.2C327.58 20.2533 327.2 20.3067 326.813 20.36C326.427 20.4133 326.08 20.5067 325.773 20.64C325.467 20.7733 325.213 20.9667 325.013 21.22C324.827 21.46 324.733 21.7933 324.733 22.22C324.733 22.5 324.787 22.74 324.893 22.94C325.013 23.1267 325.16 23.28 325.333 23.4C325.52 23.52 325.733 23.6067 325.973 23.66C326.213 23.7133 326.467 23.74 326.733 23.74ZM338.315 25.22C337.529 25.22 336.829 25.0933 336.215 24.84C335.615 24.5867 335.109 24.2267 334.695 23.76C334.295 23.2933 333.989 22.74 333.775 22.1C333.575 21.46 333.475 20.7467 333.475 19.96C333.475 19.1867 333.575 18.4667 333.775 17.8C333.975 17.12 334.275 16.5333 334.675 16.04C335.089 15.5333 335.595 15.14 336.195 14.86C336.809 14.5667 337.529 14.42 338.355 14.42C338.942 14.42 339.489 14.4933 339.995 14.64C340.515 14.7733 340.969 14.9867 341.355 15.28C341.755 15.5733 342.082 15.9467 342.335 16.4C342.589 16.84 342.749 17.3667 342.815 17.98H341.055C340.922 17.3267 340.642 16.82 340.215 16.46C339.789 16.1 339.215 15.92 338.495 15.92C337.882 15.92 337.369 16.0333 336.955 16.26C336.542 16.4867 336.209 16.7867 335.955 17.16C335.715 17.5333 335.542 17.9667 335.435 18.46C335.329 18.94 335.275 19.44 335.275 19.96C335.275 20.44 335.329 20.9067 335.435 21.36C335.555 21.8133 335.735 22.22 335.975 22.58C336.215 22.9267 336.522 23.2067 336.895 23.42C337.282 23.6333 337.749 23.74 338.295 23.74C339.135 23.74 339.789 23.52 340.255 23.08C340.735 22.64 341.029 22.02 341.135 21.22H342.875C342.689 22.5133 342.215 23.5067 341.455 24.2C340.695 24.88 339.649 25.22 338.315 25.22ZM348.858 25.22C348.071 25.22 347.371 25.0933 346.758 24.84C346.158 24.5867 345.651 24.2267 345.238 23.76C344.838 23.2933 344.531 22.74 344.318 22.1C344.118 21.46 344.018 20.7467 344.018 19.96C344.018 19.1867 344.118 18.4667 344.318 17.8C344.518 17.12 344.818 16.5333 345.218 16.04C345.631 15.5333 346.138 15.14 346.738 14.86C347.351 14.5667 348.071 14.42 348.898 14.42C349.484 14.42 350.031 14.4933 350.538 14.64C351.058 14.7733 351.511 14.9867 351.898 15.28C352.298 15.5733 352.624 15.9467 352.878 16.4C353.131 16.84 353.291 17.3667 353.358 17.98H351.598C351.464 17.3267 351.184 16.82 350.758 16.46C350.331 16.1 349.758 15.92 349.038 15.92C348.424 15.92 347.911 16.0333 347.498 16.26C347.084 16.4867 346.751 16.7867 346.498 17.16C346.258 17.5333 346.084 17.9667 345.978 18.46C345.871 18.94 345.818 19.44 345.818 19.96C345.818 20.44 345.871 20.9067 345.978 21.36C346.098 21.8133 346.278 22.22 346.518 22.58C346.758 22.9267 347.064 23.2067 347.438 23.42C347.824 23.6333 348.291 23.74 348.838 23.74C349.678 23.74 350.331 23.52 350.798 23.08C351.278 22.64 351.571 22.02 351.678 21.22H353.418C353.231 22.5133 352.758 23.5067 351.998 24.2C351.238 24.88 350.191 25.22 348.858 25.22ZM357.98 25.22C357.513 25.22 357.073 25.1667 356.66 25.06C356.247 24.9667 355.88 24.8067 355.56 24.58C355.253 24.34 355.007 24.04 354.82 23.68C354.647 23.3067 354.56 22.86 354.56 22.34C354.56 21.7533 354.66 21.2733 354.86 20.9C355.06 20.5267 355.32 20.2267 355.64 20C355.973 19.76 356.347 19.58 356.76 19.46C357.187 19.34 357.62 19.24 358.06 19.16C358.527 19.0667 358.967 19 359.38 18.96C359.807 18.9067 360.18 18.84 360.5 18.76C360.82 18.6667 361.073 18.54 361.26 18.38C361.447 18.2067 361.54 17.96 361.54 17.64C361.54 17.2667 361.467 16.9667 361.32 16.74C361.187 16.5133 361.007 16.34 360.78 16.22C360.567 16.1 360.32 16.02 360.04 15.98C359.773 15.94 359.507 15.92 359.24 15.92C358.52 15.92 357.92 16.06 357.44 16.34C356.96 16.6067 356.7 17.12 356.66 17.88H354.96C354.987 17.24 355.12 16.7 355.36 16.26C355.6 15.82 355.92 15.4667 356.32 15.2C356.72 14.92 357.173 14.72 357.68 14.6C358.2 14.48 358.753 14.42 359.34 14.42C359.807 14.42 360.267 14.4533 360.72 14.52C361.187 14.5867 361.607 14.7267 361.98 14.94C362.353 15.14 362.653 15.4267 362.88 15.8C363.107 16.1733 363.22 16.66 363.22 17.26V22.58C363.22 22.98 363.24 23.2733 363.28 23.46C363.333 23.6467 363.493 23.74 363.76 23.74C363.88 23.74 364.053 23.7067 364.28 23.64V24.96C363.987 25.1333 363.58 25.22 363.06 25.22C362.62 25.22 362.267 25.1 362 24.86C361.747 24.6067 361.62 24.2 361.62 23.64C361.153 24.2 360.607 24.6067 359.98 24.86C359.367 25.1 358.7 25.22 357.98 25.22ZM358.36 23.74C358.92 23.74 359.4 23.6667 359.8 23.52C360.2 23.36 360.527 23.1667 360.78 22.94C361.033 22.7 361.22 22.4467 361.34 22.18C361.46 21.9 361.52 21.64 361.52 21.4V19.66C361.307 19.8333 361.027 19.9533 360.68 20.02C360.333 20.0867 359.967 20.1467 359.58 20.2C359.207 20.2533 358.827 20.3067 358.44 20.36C358.053 20.4133 357.707 20.5067 357.4 20.64C357.093 20.7733 356.84 20.9667 356.64 21.22C356.453 21.46 356.36 21.7933 356.36 22.22C356.36 22.5 356.413 22.74 356.52 22.94C356.64 23.1267 356.787 23.28 356.96 23.4C357.147 23.52 357.36 23.6067 357.6 23.66C357.84 23.7133 358.093 23.74 358.36 23.74ZM369.382 19.46L364.962 14.66H367.062L371.362 19.46V14.66H373.062V19.46L377.362 14.66H379.462L375.022 19.46L380.042 25H377.942L373.642 20.38L373.062 20.9V25H371.362V20.9L370.702 20.3L366.482 25H364.382L369.382 19.46ZM381.126 14.66H382.826V23.1L387.706 14.66H389.886V25H388.186V16.56L383.306 25H381.126V14.66ZM392.314 14.66H394.014V16.06H394.054C394.334 15.4867 394.774 15.0733 395.374 14.82C395.974 14.5533 396.634 14.42 397.354 14.42C398.154 14.42 398.848 14.5667 399.434 14.86C400.034 15.1533 400.528 15.5533 400.914 16.06C401.314 16.5533 401.614 17.1267 401.814 17.78C402.014 18.4333 402.114 19.1267 402.114 19.86C402.114 20.6067 402.014 21.3067 401.814 21.96C401.628 22.6 401.334 23.1667 400.934 23.66C400.548 24.14 400.054 24.52 399.454 24.8C398.868 25.08 398.181 25.22 397.394 25.22C397.128 25.22 396.841 25.1933 396.534 25.14C396.228 25.0867 395.921 25 395.614 24.88C395.308 24.76 395.014 24.6 394.734 24.4C394.468 24.1867 394.241 23.9267 394.054 23.62H394.014V28.94H392.314V14.66ZM397.214 23.74C397.788 23.74 398.274 23.6267 398.674 23.4C399.074 23.1733 399.394 22.8733 399.634 22.5C399.874 22.1267 400.048 21.7 400.154 21.22C400.261 20.74 400.314 20.2467 400.314 19.74C400.314 19.26 400.248 18.7933 400.114 18.34C399.994 17.8733 399.801 17.46 399.534 17.1C399.281 16.74 398.948 16.4533 398.534 16.24C398.134 16.0267 397.661 15.92 397.114 15.92C396.541 15.92 396.054 16.0333 395.654 16.26C395.254 16.4867 394.928 16.7867 394.674 17.16C394.421 17.52 394.234 17.9333 394.114 18.4C394.008 18.8667 393.954 19.34 393.954 19.82C393.954 20.3267 394.014 20.82 394.134 21.3C394.254 21.7667 394.441 22.18 394.694 22.54C394.961 22.9 395.301 23.1933 395.714 23.42C396.128 23.6333 396.628 23.74 397.214 23.74ZM408.19 25.22C407.403 25.22 406.703 25.0933 406.09 24.84C405.49 24.5867 404.983 24.2267 404.57 23.76C404.17 23.2933 403.863 22.74 403.65 22.1C403.45 21.46 403.35 20.7467 403.35 19.96C403.35 19.1867 403.45 18.4667 403.65 17.8C403.85 17.12 404.15 16.5333 404.55 16.04C404.963 15.5333 405.47 15.14 406.07 14.86C406.683 14.5667 407.403 14.42 408.23 14.42C408.816 14.42 409.363 14.4933 409.87 14.64C410.39 14.7733 410.843 14.9867 411.23 15.28C411.63 15.5733 411.956 15.9467 412.21 16.4C412.463 16.84 412.623 17.3667 412.69 17.98H410.93C410.796 17.3267 410.516 16.82 410.09 16.46C409.663 16.1 409.09 15.92 408.37 15.92C407.756 15.92 407.243 16.0333 406.83 16.26C406.416 16.4867 406.083 16.7867 405.83 17.16C405.59 17.5333 405.416 17.9667 405.31 18.46C405.203 18.94 405.15 19.44 405.15 19.96C405.15 20.44 405.203 20.9067 405.31 21.36C405.43 21.8133 405.61 22.22 405.85 22.58C406.09 22.9267 406.396 23.2067 406.77 23.42C407.156 23.6333 407.623 23.74 408.17 23.74C409.01 23.74 409.663 23.52 410.13 23.08C410.61 22.64 410.903 22.02 411.01 21.22H412.75C412.563 22.5133 412.09 23.5067 411.33 24.2C410.57 24.88 409.523 25.22 408.19 25.22ZM414.452 14.66H416.152V19.6L420.892 14.66H423.152L418.572 19.14L423.692 25H421.512L417.192 20.08L416.152 21.1V25H414.452V14.66ZM424.779 14.66H426.479V23.1L431.359 14.66H433.539V25H431.839V16.56L426.959 25H424.779V14.66ZM440.307 25.22C439.481 25.22 438.754 25.0867 438.127 24.82C437.514 24.5533 437.001 24.18 436.587 23.7C436.174 23.22 435.861 22.6467 435.647 21.98C435.447 21.3133 435.347 20.5867 435.347 19.8C435.347 19.0267 435.467 18.3133 435.707 17.66C435.947 16.9933 436.281 16.42 436.707 15.94C437.147 15.46 437.661 15.0867 438.247 14.82C438.847 14.5533 439.501 14.42 440.207 14.42C441.127 14.42 441.887 14.6133 442.487 15C443.101 15.3733 443.587 15.8533 443.947 16.44C444.321 17.0267 444.574 17.6667 444.707 18.36C444.854 19.0533 444.914 19.7133 444.887 20.34H437.147C437.134 20.7933 437.187 21.2267 437.307 21.64C437.427 22.04 437.621 22.4 437.887 22.72C438.154 23.0267 438.494 23.2733 438.907 23.46C439.321 23.6467 439.807 23.74 440.367 23.74C441.087 23.74 441.674 23.5733 442.127 23.24C442.594 22.9067 442.901 22.4 443.047 21.72H444.727C444.501 22.8933 444.001 23.7733 443.227 24.36C442.454 24.9333 441.481 25.22 440.307 25.22ZM443.087 18.84C443.061 18.44 442.967 18.06 442.807 17.7C442.661 17.34 442.454 17.0333 442.187 16.78C441.934 16.5133 441.627 16.3067 441.267 16.16C440.921 16 440.534 15.92 440.107 15.92C439.667 15.92 439.267 16 438.907 16.16C438.561 16.3067 438.261 16.5133 438.007 16.78C437.754 17.0467 437.554 17.36 437.407 17.72C437.261 18.0667 437.174 18.44 437.147 18.84H443.087Z" fill="#1A1A1A"/>
<rect x="470" width="289" height="36" rx="5" fill="#F7F1E9"/>
<path d="M496 8L498.781 13.9252L505 14.8754L500.5 19.4875L501.562 26L496 22.9252L490.438 26L491.5 19.4875L487 14.8754L493.219 13.9252L496 8Z" fill="#D5B753"/>
<path d="M513.56 10.72H518.74C519.047 10.72 519.373 10.7267 519.72 10.74C520.08 10.74 520.433 10.76 520.78 10.8C521.127 10.8267 521.453 10.8733 521.76 10.94C522.067 11.0067 522.32 11.1067 522.52 11.24C522.987 11.52 523.38 11.9067 523.7 12.4C524.033 12.8933 524.2 13.5 524.2 14.22C524.2 14.98 524.013 15.64 523.64 16.2C523.28 16.7467 522.76 17.1533 522.08 17.42V17.46C522.96 17.6467 523.633 18.0467 524.1 18.66C524.567 19.2733 524.8 20.02 524.8 20.9C524.8 21.42 524.707 21.9267 524.52 22.42C524.333 22.9133 524.053 23.3533 523.68 23.74C523.32 24.1133 522.867 24.42 522.32 24.66C521.787 24.8867 521.167 25 520.46 25H513.56V10.72ZM520.22 23.4C521.06 23.4 521.713 23.1733 522.18 22.72C522.66 22.2667 522.9 21.64 522.9 20.84C522.9 20.3733 522.813 19.9867 522.64 19.68C522.467 19.3733 522.233 19.1333 521.94 18.96C521.66 18.7733 521.333 18.6467 520.96 18.58C520.587 18.5 520.2 18.46 519.8 18.46H515.46V23.4H520.22ZM519.26 16.86C520.34 16.86 521.113 16.6733 521.58 16.3C522.06 15.9133 522.3 15.34 522.3 14.58C522.3 14.0867 522.22 13.6933 522.06 13.4C521.9 13.0933 521.68 12.86 521.4 12.7C521.12 12.54 520.793 12.44 520.42 12.4C520.06 12.3467 519.673 12.32 519.26 12.32H515.46V16.86H519.26ZM531.171 25.22C530.345 25.22 529.618 25.0867 528.991 24.82C528.378 24.5533 527.865 24.18 527.451 23.7C527.038 23.22 526.725 22.6467 526.511 21.98C526.311 21.3133 526.211 20.5867 526.211 19.8C526.211 19.0267 526.331 18.3133 526.571 17.66C526.811 16.9933 527.145 16.42 527.571 15.94C528.011 15.46 528.525 15.0867 529.111 14.82C529.711 14.5533 530.365 14.42 531.071 14.42C531.991 14.42 532.751 14.6133 533.351 15C533.965 15.3733 534.451 15.8533 534.811 16.44C535.185 17.0267 535.438 17.6667 535.571 18.36C535.718 19.0533 535.778 19.7133 535.751 20.34H528.011C527.998 20.7933 528.051 21.2267 528.171 21.64C528.291 22.04 528.485 22.4 528.751 22.72C529.018 23.0267 529.358 23.2733 529.771 23.46C530.185 23.6467 530.671 23.74 531.231 23.74C531.951 23.74 532.538 23.5733 532.991 23.24C533.458 22.9067 533.765 22.4 533.911 21.72H535.591C535.365 22.8933 534.865 23.7733 534.091 24.36C533.318 24.9333 532.345 25.22 531.171 25.22ZM533.951 18.84C533.925 18.44 533.831 18.06 533.671 17.7C533.525 17.34 533.318 17.0333 533.051 16.78C532.798 16.5133 532.491 16.3067 532.131 16.16C531.785 16 531.398 15.92 530.971 15.92C530.531 15.92 530.131 16 529.771 16.16C529.425 16.3067 529.125 16.5133 528.871 16.78C528.618 17.0467 528.418 17.36 528.271 17.72C528.125 18.0667 528.038 18.44 528.011 18.84H533.951ZM536.094 23.5H537.314C537.46 23.22 537.607 22.84 537.754 22.36C537.914 21.8667 538.054 21.3267 538.174 20.74C538.307 20.14 538.414 19.5067 538.494 18.84C538.574 18.1733 538.614 17.52 538.614 16.88V14.66H546.094V23.5H547.494V28.14H545.874V25H537.714V28.14H536.094V23.5ZM544.394 23.5V16.16H540.274V17.04C540.274 17.6933 540.234 18.3467 540.154 19C540.087 19.64 539.994 20.2467 539.874 20.82C539.754 21.3933 539.62 21.9133 539.474 22.38C539.34 22.8467 539.207 23.22 539.074 23.5H544.394ZM549.951 29.12C549.751 29.12 549.551 29.1067 549.351 29.08C549.151 29.0533 548.958 29.0067 548.771 28.94V27.38C548.931 27.4333 549.091 27.4867 549.251 27.54C549.424 27.5933 549.598 27.62 549.771 27.62C550.118 27.62 550.398 27.54 550.611 27.38C550.824 27.22 551.011 26.9867 551.171 26.68L551.871 24.94L547.771 14.66H549.691L552.711 23.12H552.751L555.651 14.66H557.451L552.951 26.36C552.751 26.8667 552.551 27.2933 552.351 27.64C552.164 27.9867 551.951 28.2667 551.711 28.48C551.484 28.7067 551.224 28.8667 550.931 28.96C550.651 29.0667 550.324 29.12 549.951 29.12ZM572.091 25H558.691V14.66H560.391V23.5H564.651V14.66H566.351V23.5H570.611V14.66H572.311V23.5H573.711V28.14H572.091V25ZM575.112 14.66H576.812V23.1L581.692 14.66H583.872V25H582.172V16.56L577.292 25H575.112V14.66ZM590.64 25.22C589.813 25.22 589.087 25.0867 588.46 24.82C587.847 24.5533 587.333 24.18 586.92 23.7C586.507 23.22 586.193 22.6467 585.98 21.98C585.78 21.3133 585.68 20.5867 585.68 19.8C585.68 19.0267 585.8 18.3133 586.04 17.66C586.28 16.9933 586.613 16.42 587.04 15.94C587.48 15.46 587.993 15.0867 588.58 14.82C589.18 14.5533 589.833 14.42 590.54 14.42C591.46 14.42 592.22 14.6133 592.82 15C593.433 15.3733 593.92 15.8533 594.28 16.44C594.653 17.0267 594.907 17.6667 595.04 18.36C595.187 19.0533 595.247 19.7133 595.22 20.34H587.48C587.467 20.7933 587.52 21.2267 587.64 21.64C587.76 22.04 587.953 22.4 588.22 22.72C588.487 23.0267 588.827 23.2733 589.24 23.46C589.653 23.6467 590.14 23.74 590.7 23.74C591.42 23.74 592.007 23.5733 592.46 23.24C592.927 22.9067 593.233 22.4 593.38 21.72H595.06C594.833 22.8933 594.333 23.7733 593.56 24.36C592.787 24.9333 591.813 25.22 590.64 25.22ZM593.42 18.84C593.393 18.44 593.3 18.06 593.14 17.7C592.993 17.34 592.787 17.0333 592.52 16.78C592.267 16.5133 591.96 16.3067 591.6 16.16C591.253 16 590.867 15.92 590.44 15.92C590 15.92 589.6 16 589.24 16.16C588.893 16.3067 588.593 16.5133 588.34 16.78C588.087 17.0467 587.887 17.36 587.74 17.72C587.593 18.0667 587.507 18.44 587.48 18.84H593.42ZM602.149 14.66H610.589V25H608.889V16.16H603.849V25H602.149V14.66ZM613.005 14.66H614.705V16.06H614.745C615.025 15.4867 615.465 15.0733 616.065 14.82C616.665 14.5533 617.325 14.42 618.045 14.42C618.845 14.42 619.538 14.5667 620.125 14.86C620.725 15.1533 621.218 15.5533 621.605 16.06C622.005 16.5533 622.305 17.1267 622.505 17.78C622.705 18.4333 622.805 19.1267 622.805 19.86C622.805 20.6067 622.705 21.3067 622.505 21.96C622.318 22.6 622.025 23.1667 621.625 23.66C621.238 24.14 620.745 24.52 620.145 24.8C619.558 25.08 618.872 25.22 618.085 25.22C617.818 25.22 617.532 25.1933 617.225 25.14C616.918 25.0867 616.612 25 616.305 24.88C615.998 24.76 615.705 24.6 615.425 24.4C615.158 24.1867 614.932 23.9267 614.745 23.62H614.705V28.94H613.005V14.66ZM617.905 23.74C618.478 23.74 618.965 23.6267 619.365 23.4C619.765 23.1733 620.085 22.8733 620.325 22.5C620.565 22.1267 620.738 21.7 620.845 21.22C620.952 20.74 621.005 20.2467 621.005 19.74C621.005 19.26 620.938 18.7933 620.805 18.34C620.685 17.8733 620.492 17.46 620.225 17.1C619.972 16.74 619.638 16.4533 619.225 16.24C618.825 16.0267 618.352 15.92 617.805 15.92C617.232 15.92 616.745 16.0333 616.345 16.26C615.945 16.4867 615.618 16.7867 615.365 17.16C615.112 17.52 614.925 17.9333 614.805 18.4C614.698 18.8667 614.645 19.34 614.645 19.82C614.645 20.3267 614.705 20.82 614.825 21.3C614.945 21.7667 615.132 22.18 615.385 22.54C615.652 22.9 615.992 23.1933 616.405 23.42C616.818 23.6333 617.318 23.74 617.905 23.74ZM629.06 25.22C628.234 25.22 627.507 25.0867 626.88 24.82C626.267 24.54 625.747 24.16 625.32 23.68C624.894 23.1867 624.574 22.6133 624.36 21.96C624.147 21.3067 624.04 20.6 624.04 19.84C624.04 19.08 624.147 18.3733 624.36 17.72C624.574 17.0533 624.894 16.48 625.32 16C625.747 15.5067 626.267 15.12 626.88 14.84C627.507 14.56 628.234 14.42 629.06 14.42C629.874 14.42 630.594 14.56 631.22 14.84C631.847 15.12 632.374 15.5067 632.8 16C633.227 16.48 633.547 17.0533 633.76 17.72C633.974 18.3733 634.08 19.08 634.08 19.84C634.08 20.6 633.974 21.3067 633.76 21.96C633.547 22.6133 633.227 23.1867 632.8 23.68C632.374 24.16 631.847 24.54 631.22 24.82C630.594 25.0867 629.874 25.22 629.06 25.22ZM629.06 23.74C629.5 23.74 629.914 23.6533 630.3 23.48C630.7 23.3067 631.047 23.06 631.34 22.74C631.634 22.4067 631.86 22 632.02 21.52C632.194 21.0267 632.28 20.4667 632.28 19.84C632.28 19.2133 632.194 18.66 632.02 18.18C631.86 17.6867 631.634 17.2733 631.34 16.94C631.047 16.6067 630.7 16.3533 630.3 16.18C629.914 16.0067 629.5 15.92 629.06 15.92C628.62 15.92 628.2 16.0067 627.8 16.18C627.414 16.3533 627.074 16.6067 626.78 16.94C626.487 17.2733 626.254 17.6867 626.08 18.18C625.92 18.66 625.84 19.2133 625.84 19.84C625.84 20.4667 625.92 21.0267 626.08 21.52C626.254 22 626.487 22.4067 626.78 22.74C627.074 23.06 627.414 23.3067 627.8 23.48C628.2 23.6533 628.62 23.74 629.06 23.74ZM635.885 14.66H637.585V23.1L642.465 14.66H644.645V25H642.945V16.56L638.065 25H635.885V14.66ZM650.813 25.22C649.439 25.22 648.366 24.9133 647.593 24.3C646.819 23.6867 646.399 22.8133 646.333 21.68H648.053C648.106 22.44 648.386 22.9867 648.893 23.32C649.399 23.6533 650.033 23.82 650.793 23.82C651.606 23.82 652.233 23.6467 652.673 23.3C653.113 22.9533 653.333 22.5133 653.333 21.98C653.333 21.46 653.166 21.0533 652.833 20.76C652.499 20.4667 651.933 20.32 651.133 20.32H649.753V18.94H650.853C651.453 18.94 651.966 18.82 652.393 18.58C652.819 18.3267 653.033 17.8933 653.033 17.28C653.033 16.8933 652.846 16.5533 652.473 16.26C652.113 15.9667 651.573 15.82 650.853 15.82C650.546 15.82 650.239 15.8533 649.933 15.92C649.639 15.9867 649.373 16.0933 649.133 16.24C648.893 16.3867 648.693 16.58 648.533 16.82C648.373 17.06 648.273 17.3533 648.233 17.7H646.513C646.553 17.06 646.706 16.5333 646.973 16.12C647.239 15.6933 647.573 15.36 647.973 15.12C648.373 14.8667 648.826 14.6867 649.333 14.58C649.839 14.4733 650.353 14.42 650.873 14.42C651.406 14.42 651.906 14.4733 652.373 14.58C652.839 14.6867 653.246 14.86 653.593 15.1C653.953 15.3267 654.233 15.6133 654.433 15.96C654.646 16.3067 654.753 16.72 654.753 17.2C654.753 17.8 654.579 18.2867 654.233 18.66C653.899 19.0333 653.519 19.2667 653.093 19.36V19.4C653.333 19.44 653.573 19.52 653.813 19.64C654.053 19.76 654.266 19.9267 654.453 20.14C654.639 20.34 654.793 20.5933 654.913 20.9C655.033 21.1933 655.093 21.54 655.093 21.94C655.093 22.5 654.973 22.9867 654.733 23.4C654.493 23.8133 654.173 24.1533 653.773 24.42C653.373 24.6867 652.913 24.8867 652.393 25.02C651.886 25.1533 651.359 25.22 650.813 25.22ZM656.93 14.66H661.71C662.163 14.66 662.597 14.6933 663.01 14.76C663.437 14.8267 663.817 14.9533 664.15 15.14C664.483 15.3133 664.75 15.5667 664.95 15.9C665.15 16.2333 665.25 16.66 665.25 17.18C665.25 17.74 665.117 18.1933 664.85 18.54C664.583 18.8867 664.21 19.1733 663.73 19.4V19.42C664.33 19.54 664.803 19.82 665.15 20.26C665.51 20.7 665.69 21.2667 665.69 21.96C665.69 22.4 665.61 22.8067 665.45 23.18C665.303 23.5533 665.09 23.8733 664.81 24.14C664.53 24.4067 664.197 24.62 663.81 24.78C663.423 24.9267 663.003 25 662.55 25H656.93V14.66ZM662.23 23.56C662.79 23.56 663.21 23.4 663.49 23.08C663.783 22.7467 663.93 22.3333 663.93 21.84C663.93 21.3733 663.777 21 663.47 20.72C663.163 20.44 662.65 20.3 661.93 20.3H658.61V23.56H662.23ZM661.53 18.9C662.263 18.9 662.77 18.7667 663.05 18.5C663.343 18.2333 663.49 17.88 663.49 17.44C663.49 17.0133 663.35 16.6867 663.07 16.46C662.79 16.22 662.277 16.1 661.53 16.1H658.61V18.9H661.53ZM671.991 25.22C671.164 25.22 670.437 25.0867 669.811 24.82C669.197 24.54 668.677 24.16 668.251 23.68C667.824 23.1867 667.504 22.6133 667.291 21.96C667.077 21.3067 666.971 20.6 666.971 19.84C666.971 19.08 667.077 18.3733 667.291 17.72C667.504 17.0533 667.824 16.48 668.251 16C668.677 15.5067 669.197 15.12 669.811 14.84C670.437 14.56 671.164 14.42 671.991 14.42C672.804 14.42 673.524 14.56 674.151 14.84C674.777 15.12 675.304 15.5067 675.731 16C676.157 16.48 676.477 17.0533 676.691 17.72C676.904 18.3733 677.011 19.08 677.011 19.84C677.011 20.6 676.904 21.3067 676.691 21.96C676.477 22.6133 676.157 23.1867 675.731 23.68C675.304 24.16 674.777 24.54 674.151 24.82C673.524 25.0867 672.804 25.22 671.991 25.22ZM671.991 23.74C672.431 23.74 672.844 23.6533 673.231 23.48C673.631 23.3067 673.977 23.06 674.271 22.74C674.564 22.4067 674.791 22 674.951 21.52C675.124 21.0267 675.211 20.4667 675.211 19.84C675.211 19.2133 675.124 18.66 674.951 18.18C674.791 17.6867 674.564 17.2733 674.271 16.94C673.977 16.6067 673.631 16.3533 673.231 16.18C672.844 16.0067 672.431 15.92 671.991 15.92C671.551 15.92 671.131 16.0067 670.731 16.18C670.344 16.3533 670.004 16.6067 669.711 16.94C669.417 17.2733 669.184 17.6867 669.011 18.18C668.851 18.66 668.771 19.2133 668.771 19.84C668.771 20.4667 668.851 21.0267 669.011 21.52C669.184 22 669.417 22.4067 669.711 22.74C670.004 23.06 670.344 23.3067 670.731 23.48C671.131 23.6533 671.551 23.74 671.991 23.74ZM677.595 23.5H678.815C678.962 23.22 679.108 22.84 679.255 22.36C679.415 21.8667 679.555 21.3267 679.675 20.74C679.808 20.14 679.915 19.5067 679.995 18.84C680.075 18.1733 680.115 17.52 680.115 16.88V14.66H687.595V23.5H688.995V28.14H687.375V25H679.215V28.14H677.595V23.5ZM685.895 23.5V16.16H681.775V17.04C681.775 17.6933 681.735 18.3467 681.655 19C681.588 19.64 681.495 20.2467 681.375 20.82C681.255 21.3933 681.122 21.9133 680.975 22.38C680.842 22.8467 680.708 23.22 680.575 23.5H685.895ZM690.393 14.66H692.093V23.1L696.973 14.66H699.153V25H697.453V16.56L692.573 25H690.393V14.66ZM704.021 16.16H700.321V14.66H709.421V16.16H705.721V25H704.021V16.16ZM714.978 25.22C714.152 25.22 713.425 25.0867 712.798 24.82C712.185 24.5533 711.672 24.18 711.258 23.7C710.845 23.22 710.532 22.6467 710.318 21.98C710.118 21.3133 710.018 20.5867 710.018 19.8C710.018 19.0267 710.138 18.3133 710.378 17.66C710.618 16.9933 710.952 16.42 711.378 15.94C711.818 15.46 712.332 15.0867 712.918 14.82C713.518 14.5533 714.172 14.42 714.878 14.42C715.798 14.42 716.558 14.6133 717.158 15C717.772 15.3733 718.258 15.8533 718.618 16.44C718.992 17.0267 719.245 17.6667 719.378 18.36C719.525 19.0533 719.585 19.7133 719.558 20.34H711.818C711.805 20.7933 711.858 21.2267 711.978 21.64C712.098 22.04 712.292 22.4 712.558 22.72C712.825 23.0267 713.165 23.2733 713.578 23.46C713.992 23.6467 714.478 23.74 715.038 23.74C715.758 23.74 716.345 23.5733 716.798 23.24C717.265 22.9067 717.572 22.4 717.718 21.72H719.398C719.172 22.8933 718.672 23.7733 717.898 24.36C717.125 24.9333 716.152 25.22 714.978 25.22ZM717.758 18.84C717.732 18.44 717.638 18.06 717.478 17.7C717.332 17.34 717.125 17.0333 716.858 16.78C716.605 16.5133 716.298 16.3067 715.938 16.16C715.592 16 715.205 15.92 714.778 15.92C714.338 15.92 713.938 16 713.578 16.16C713.232 16.3067 712.932 16.5133 712.678 16.78C712.425 17.0467 712.225 17.36 712.078 17.72C711.932 18.0667 711.845 18.44 711.818 18.84H717.758ZM721.041 25.12C720.867 25.12 720.687 25.1 720.501 25.06C720.314 25.0333 720.161 25.0067 720.041 24.98V23.48C720.174 23.52 720.294 23.5467 720.401 23.56C720.521 23.5733 720.634 23.58 720.741 23.58C721.181 23.58 721.514 23.4067 721.741 23.06C721.981 22.7133 722.154 22.18 722.261 21.46C722.381 20.74 722.454 19.82 722.481 18.7C722.507 17.5667 722.534 16.22 722.561 14.66H729.821V25H728.121V16.16H724.201C724.161 17.3733 724.114 18.5267 724.061 19.62C724.021 20.7 723.907 21.6467 723.721 22.46C723.534 23.2733 723.234 23.92 722.821 24.4C722.407 24.88 721.814 25.12 721.041 25.12ZM732.19 14.66H733.89V23.1L738.77 14.66H740.95V25H739.25V16.56L734.37 25H732.19V14.66Z" fill="#1A1A1A"/>
</svg>
