<svg width="933" height="36" viewBox="0 0 933 36" fill="none" xmlns="http://www.w3.org/2000/svg">
<rect width="290" height="36" rx="5" fill="#F7F1E9"/>
<path d="M26 8L28.7812 13.9252L35 14.8754L30.5 19.4875L31.5623 26L26 22.9252L20.4377 26L21.5 19.4875L17 14.8754L23.2188 13.9252L26 8Z" fill="#D5B753"/>
<path d="M48.64 25.32C47.7867 25.32 47 25.22 46.28 25.02C45.56 24.82 44.9333 24.5133 44.4 24.1C43.88 23.6867 43.4733 23.1667 43.18 22.54C42.8867 21.9133 42.74 21.1667 42.74 20.3H44.56C44.5733 20.94 44.6933 21.4867 44.92 21.94C45.16 22.38 45.4667 22.74 45.84 23.02C46.2267 23.2867 46.6733 23.48 47.18 23.6C47.6867 23.72 48.2267 23.78 48.8 23.78C49.2933 23.78 49.7533 23.7133 50.18 23.58C50.6067 23.4333 50.9733 23.2333 51.28 22.98C51.6 22.7133 51.8467 22.4 52.02 22.04C52.2067 21.6667 52.3 21.2533 52.3 20.8C52.3 20.28 52.2 19.86 52 19.54C51.8 19.2067 51.5333 18.9533 51.2 18.78C50.88 18.5933 50.5 18.4667 50.06 18.4C49.6333 18.3333 49.18 18.3 48.7 18.3C48.5 18.3 48.2733 18.3067 48.02 18.32C47.7667 18.32 47.5667 18.3267 47.42 18.34V16.78C47.58 16.8067 47.7933 16.82 48.06 16.82C48.3267 16.82 48.54 16.82 48.7 16.82C49.1533 16.82 49.5667 16.78 49.94 16.7C50.3267 16.6067 50.6533 16.46 50.92 16.26C51.2 16.06 51.4133 15.8 51.56 15.48C51.72 15.1467 51.8 14.74 51.8 14.26C51.8 13.82 51.7133 13.4533 51.54 13.16C51.38 12.8667 51.1533 12.6333 50.86 12.46C50.58 12.2733 50.2533 12.14 49.88 12.06C49.52 11.98 49.14 11.94 48.74 11.94C47.6867 11.94 46.86 12.1733 46.26 12.64C45.66 13.0933 45.3067 13.84 45.2 14.88H43.38C43.4067 14.12 43.56 13.46 43.84 12.9C44.1333 12.3267 44.52 11.86 45 11.5C45.48 11.1267 46.04 10.8467 46.68 10.66C47.3333 10.4733 48.04 10.38 48.8 10.38C49.48 10.38 50.1133 10.46 50.7 10.62C51.3 10.7667 51.82 11 52.26 11.32C52.7 11.64 53.0467 12.0467 53.3 12.54C53.5533 13.02 53.68 13.5933 53.68 14.26C53.68 14.6467 53.6133 15.0067 53.48 15.34C53.3467 15.6733 53.1667 15.9733 52.94 16.24C52.7267 16.5067 52.4733 16.74 52.18 16.94C51.9 17.1267 51.6133 17.2667 51.32 17.36V17.42C51.7867 17.5133 52.2 17.6733 52.56 17.9C52.92 18.1133 53.22 18.3733 53.46 18.68C53.7 18.9867 53.88 19.3267 54 19.7C54.12 20.0733 54.18 20.4533 54.18 20.84C54.18 21.28 54.08 21.76 53.88 22.28C53.68 22.8 53.3533 23.2867 52.9 23.74C52.46 24.1933 51.8867 24.5733 51.18 24.88C50.4867 25.1733 49.64 25.32 48.64 25.32ZM60.6259 25.22C59.7993 25.22 59.0726 25.0867 58.4459 24.82C57.8326 24.54 57.3126 24.16 56.8859 23.68C56.4593 23.1867 56.1393 22.6133 55.9259 21.96C55.7126 21.3067 55.6059 20.6 55.6059 19.84C55.6059 19.08 55.7126 18.3733 55.9259 17.72C56.1393 17.0533 56.4593 16.48 56.8859 16C57.3126 15.5067 57.8326 15.12 58.4459 14.84C59.0726 14.56 59.7993 14.42 60.6259 14.42C61.4393 14.42 62.1593 14.56 62.7859 14.84C63.4126 15.12 63.9393 15.5067 64.3659 16C64.7926 16.48 65.1126 17.0533 65.3259 17.72C65.5393 18.3733 65.6459 19.08 65.6459 19.84C65.6459 20.6 65.5393 21.3067 65.3259 21.96C65.1126 22.6133 64.7926 23.1867 64.3659 23.68C63.9393 24.16 63.4126 24.54 62.7859 24.82C62.1593 25.0867 61.4393 25.22 60.6259 25.22ZM60.6259 23.74C61.0659 23.74 61.4793 23.6533 61.8659 23.48C62.2659 23.3067 62.6126 23.06 62.9059 22.74C63.1993 22.4067 63.4259 22 63.5859 21.52C63.7593 21.0267 63.8459 20.4667 63.8459 19.84C63.8459 19.2133 63.7593 18.66 63.5859 18.18C63.4259 17.6867 63.1993 17.2733 62.9059 16.94C62.6126 16.6067 62.2659 16.3533 61.8659 16.18C61.4793 16.0067 61.0659 15.92 60.6259 15.92C60.1859 15.92 59.7659 16.0067 59.3659 16.18C58.9793 16.3533 58.6393 16.6067 58.3459 16.94C58.0526 17.2733 57.8193 17.6867 57.6459 18.18C57.4859 18.66 57.4059 19.2133 57.4059 19.84C57.4059 20.4667 57.4859 21.0267 57.6459 21.52C57.8193 22 58.0526 22.4067 58.3459 22.74C58.6393 23.06 58.9793 23.3067 59.3659 23.48C59.7659 23.6533 60.1859 23.74 60.6259 23.74ZM67.4503 14.66H69.1503V18.78H74.3903V14.66H76.0903V25H74.3903V20.24H69.1503V25H67.4503V14.66ZM78.4417 14.66H80.1417V18.62H83.3417C84.3551 18.62 85.1684 18.9 85.7817 19.46C86.3951 20.0067 86.7017 20.78 86.7017 21.78C86.7017 22.7533 86.4084 23.5333 85.8217 24.12C85.2351 24.7067 84.4351 25 83.4217 25H78.4417V14.66ZM82.8017 23.5C84.2284 23.5 84.9417 22.9267 84.9417 21.78C84.9417 20.6467 84.2284 20.08 82.8017 20.08H80.1417V23.5H82.8017ZM88.3417 14.66H90.0417V25H88.3417V14.66ZM102.228 25.22C101.402 25.22 100.675 25.0867 100.048 24.82C99.4349 24.54 98.9149 24.16 98.4883 23.68C98.0616 23.1867 97.7416 22.6133 97.5283 21.96C97.3149 21.3067 97.2083 20.6 97.2083 19.84C97.2083 19.08 97.3149 18.3733 97.5283 17.72C97.7416 17.0533 98.0616 16.48 98.4883 16C98.9149 15.5067 99.4349 15.12 100.048 14.84C100.675 14.56 101.402 14.42 102.228 14.42C103.042 14.42 103.762 14.56 104.388 14.84C105.015 15.12 105.542 15.5067 105.968 16C106.395 16.48 106.715 17.0533 106.928 17.72C107.142 18.3733 107.248 19.08 107.248 19.84C107.248 20.6 107.142 21.3067 106.928 21.96C106.715 22.6133 106.395 23.1867 105.968 23.68C105.542 24.16 105.015 24.54 104.388 24.82C103.762 25.0867 103.042 25.22 102.228 25.22ZM102.228 23.74C102.668 23.74 103.082 23.6533 103.468 23.48C103.868 23.3067 104.215 23.06 104.508 22.74C104.802 22.4067 105.028 22 105.188 21.52C105.362 21.0267 105.448 20.4667 105.448 19.84C105.448 19.2133 105.362 18.66 105.188 18.18C105.028 17.6867 104.802 17.2733 104.508 16.94C104.215 16.6067 103.868 16.3533 103.468 16.18C103.082 16.0067 102.668 15.92 102.228 15.92C101.788 15.92 101.368 16.0067 100.968 16.18C100.582 16.3533 100.242 16.6067 99.9483 16.94C99.6549 17.2733 99.4216 17.6867 99.2483 18.18C99.0883 18.66 99.0083 19.2133 99.0083 19.84C99.0083 20.4667 99.0883 21.0267 99.2483 21.52C99.4216 22 99.6549 22.4067 99.9483 22.74C100.242 23.06 100.582 23.3067 100.968 23.48C101.368 23.6533 101.788 23.74 102.228 23.74ZM112.773 19.46L108.353 14.66H110.453L114.753 19.46V14.66H116.453V19.46L120.753 14.66H122.853L118.413 19.46L123.433 25H121.333L117.033 20.38L116.453 20.9V25H114.753V20.9L114.093 20.3L109.873 25H107.773L112.773 19.46ZM124.517 14.66H126.217V23.1L131.097 14.66H133.277V25H131.577V16.56L126.697 25H124.517V14.66ZM134.425 23.5H135.645C135.792 23.22 135.938 22.84 136.085 22.36C136.245 21.8667 136.385 21.3267 136.505 20.74C136.638 20.14 136.745 19.5067 136.825 18.84C136.905 18.1733 136.945 17.52 136.945 16.88V14.66H144.425V23.5H145.825V28.14H144.205V25H136.045V28.14H134.425V23.5ZM142.725 23.5V16.16H138.605V17.04C138.605 17.6933 138.565 18.3467 138.485 19C138.418 19.64 138.325 20.2467 138.205 20.82C138.085 21.3933 137.952 21.9133 137.805 22.38C137.672 22.8467 137.538 23.22 137.405 23.5H142.725ZM150.082 25.22C149.616 25.22 149.176 25.1667 148.762 25.06C148.349 24.9667 147.982 24.8067 147.662 24.58C147.356 24.34 147.109 24.04 146.922 23.68C146.749 23.3067 146.662 22.86 146.662 22.34C146.662 21.7533 146.762 21.2733 146.962 20.9C147.162 20.5267 147.422 20.2267 147.742 20C148.076 19.76 148.449 19.58 148.862 19.46C149.289 19.34 149.722 19.24 150.162 19.16C150.629 19.0667 151.069 19 151.482 18.96C151.909 18.9067 152.282 18.84 152.602 18.76C152.922 18.6667 153.176 18.54 153.362 18.38C153.549 18.2067 153.642 17.96 153.642 17.64C153.642 17.2667 153.569 16.9667 153.422 16.74C153.289 16.5133 153.109 16.34 152.882 16.22C152.669 16.1 152.422 16.02 152.142 15.98C151.876 15.94 151.609 15.92 151.342 15.92C150.622 15.92 150.022 16.06 149.542 16.34C149.062 16.6067 148.802 17.12 148.762 17.88H147.062C147.089 17.24 147.222 16.7 147.462 16.26C147.702 15.82 148.022 15.4667 148.422 15.2C148.822 14.92 149.276 14.72 149.782 14.6C150.302 14.48 150.856 14.42 151.442 14.42C151.909 14.42 152.369 14.4533 152.822 14.52C153.289 14.5867 153.709 14.7267 154.082 14.94C154.456 15.14 154.756 15.4267 154.982 15.8C155.209 16.1733 155.322 16.66 155.322 17.26V22.58C155.322 22.98 155.342 23.2733 155.382 23.46C155.436 23.6467 155.596 23.74 155.862 23.74C155.982 23.74 156.156 23.7067 156.382 23.64V24.96C156.089 25.1333 155.682 25.22 155.162 25.22C154.722 25.22 154.369 25.1 154.102 24.86C153.849 24.6067 153.722 24.2 153.722 23.64C153.256 24.2 152.709 24.6067 152.082 24.86C151.469 25.1 150.802 25.22 150.082 25.22ZM150.462 23.74C151.022 23.74 151.502 23.6667 151.902 23.52C152.302 23.36 152.629 23.1667 152.882 22.94C153.136 22.7 153.322 22.4467 153.442 22.18C153.562 21.9 153.622 21.64 153.622 21.4V19.66C153.409 19.8333 153.129 19.9533 152.782 20.02C152.436 20.0867 152.069 20.1467 151.682 20.2C151.309 20.2533 150.929 20.3067 150.542 20.36C150.156 20.4133 149.809 20.5067 149.502 20.64C149.196 20.7733 148.942 20.9667 148.742 21.22C148.556 21.46 148.462 21.7933 148.462 22.22C148.462 22.5 148.516 22.74 148.622 22.94C148.742 23.1267 148.889 23.28 149.062 23.4C149.249 23.52 149.462 23.6067 149.702 23.66C149.942 23.7133 150.196 23.74 150.462 23.74ZM157.764 14.66H159.464V18.78H164.704V14.66H166.404V25H164.704V20.24H159.464V25H157.764V14.66ZM168.756 14.66H170.456V23.1L175.336 14.66H177.516V25H175.816V16.56L170.936 25H168.756V14.66ZM182.064 20.96C181.331 20.8533 180.731 20.52 180.264 19.96C179.797 19.4 179.564 18.6933 179.564 17.84C179.564 16.8667 179.851 16.0933 180.424 15.52C181.011 14.9467 181.804 14.66 182.804 14.66H188.044V25H186.344V21.02H184.084L180.924 25H178.664L182.064 20.96ZM186.344 19.56V16.16H183.344C182.624 16.16 182.104 16.3133 181.784 16.62C181.464 16.9267 181.304 17.34 181.304 17.86C181.304 18.3933 181.464 18.8133 181.784 19.12C182.104 19.4133 182.624 19.56 183.344 19.56H186.344ZM195.773 14.66H197.473V23.1L202.353 14.66H204.533V25H202.833V16.56L197.953 25H195.773V14.66ZM212.268 14.66H217.048C217.501 14.66 217.934 14.6933 218.348 14.76C218.774 14.8267 219.154 14.9533 219.488 15.14C219.821 15.3133 220.088 15.5667 220.288 15.9C220.488 16.2333 220.588 16.66 220.588 17.18C220.588 17.74 220.454 18.1933 220.188 18.54C219.921 18.8867 219.548 19.1733 219.068 19.4V19.42C219.668 19.54 220.141 19.82 220.488 20.26C220.848 20.7 221.028 21.2667 221.028 21.96C221.028 22.4 220.948 22.8067 220.788 23.18C220.641 23.5533 220.428 23.8733 220.148 24.14C219.868 24.4067 219.534 24.62 219.148 24.78C218.761 24.9267 218.341 25 217.888 25H212.268V14.66ZM217.568 23.56C218.128 23.56 218.548 23.4 218.828 23.08C219.121 22.7467 219.268 22.3333 219.268 21.84C219.268 21.3733 219.114 21 218.808 20.72C218.501 20.44 217.988 20.3 217.268 20.3H213.948V23.56H217.568ZM216.868 18.9C217.601 18.9 218.108 18.7667 218.388 18.5C218.681 18.2333 218.828 17.88 218.828 17.44C218.828 17.0133 218.688 16.6867 218.408 16.46C218.128 16.22 217.614 16.1 216.868 16.1H213.948V18.9H216.868ZM227.148 25.22C226.362 25.22 225.662 25.0933 225.048 24.84C224.448 24.5867 223.942 24.2267 223.528 23.76C223.128 23.2933 222.822 22.74 222.608 22.1C222.408 21.46 222.308 20.7467 222.308 19.96C222.308 19.1867 222.408 18.4667 222.608 17.8C222.808 17.12 223.108 16.5333 223.508 16.04C223.922 15.5333 224.428 15.14 225.028 14.86C225.642 14.5667 226.362 14.42 227.188 14.42C227.775 14.42 228.322 14.4933 228.828 14.64C229.348 14.7733 229.802 14.9867 230.188 15.28C230.588 15.5733 230.915 15.9467 231.168 16.4C231.422 16.84 231.582 17.3667 231.648 17.98H229.888C229.755 17.3267 229.475 16.82 229.048 16.46C228.622 16.1 228.048 15.92 227.328 15.92C226.715 15.92 226.202 16.0333 225.788 16.26C225.375 16.4867 225.042 16.7867 224.788 17.16C224.548 17.5333 224.375 17.9667 224.268 18.46C224.162 18.94 224.108 19.44 224.108 19.96C224.108 20.44 224.162 20.9067 224.268 21.36C224.388 21.8133 224.568 22.22 224.808 22.58C225.048 22.9267 225.355 23.2067 225.728 23.42C226.115 23.6333 226.582 23.74 227.128 23.74C227.968 23.74 228.622 23.52 229.088 23.08C229.568 22.64 229.862 22.02 229.968 21.22H231.708C231.522 22.5133 231.048 23.5067 230.288 24.2C229.528 24.88 228.482 25.22 227.148 25.22ZM235.91 16.16H232.21V14.66H241.31V16.16H237.61V25H235.91V16.16ZM242.528 14.66H244.228V16.06H244.268C244.548 15.4867 244.988 15.0733 245.588 14.82C246.188 14.5533 246.848 14.42 247.568 14.42C248.368 14.42 249.062 14.5667 249.648 14.86C250.248 15.1533 250.742 15.5533 251.128 16.06C251.528 16.5533 251.828 17.1267 252.028 17.78C252.228 18.4333 252.328 19.1267 252.328 19.86C252.328 20.6067 252.228 21.3067 252.028 21.96C251.842 22.6 251.548 23.1667 251.148 23.66C250.762 24.14 250.268 24.52 249.668 24.8C249.082 25.08 248.395 25.22 247.608 25.22C247.342 25.22 247.055 25.1933 246.748 25.14C246.442 25.0867 246.135 25 245.828 24.88C245.522 24.76 245.228 24.6 244.948 24.4C244.682 24.1867 244.455 23.9267 244.268 23.62H244.228V28.94H242.528V14.66ZM247.428 23.74C248.002 23.74 248.488 23.6267 248.888 23.4C249.288 23.1733 249.608 22.8733 249.848 22.5C250.088 22.1267 250.262 21.7 250.368 21.22C250.475 20.74 250.528 20.2467 250.528 19.74C250.528 19.26 250.462 18.7933 250.328 18.34C250.208 17.8733 250.015 17.46 249.748 17.1C249.495 16.74 249.162 16.4533 248.748 16.24C248.348 16.0267 247.875 15.92 247.328 15.92C246.755 15.92 246.268 16.0333 245.868 16.26C245.468 16.4867 245.142 16.7867 244.888 17.16C244.635 17.52 244.448 17.9333 244.328 18.4C244.222 18.8667 244.168 19.34 244.168 19.82C244.168 20.3267 244.228 20.82 244.348 21.3C244.468 21.7667 244.655 22.18 244.908 22.54C245.175 22.9 245.515 23.1933 245.928 23.42C246.342 23.6333 246.842 23.74 247.428 23.74ZM258.524 25.22C257.697 25.22 256.97 25.0867 256.344 24.82C255.73 24.5533 255.217 24.18 254.804 23.7C254.39 23.22 254.077 22.6467 253.864 21.98C253.664 21.3133 253.564 20.5867 253.564 19.8C253.564 19.0267 253.684 18.3133 253.924 17.66C254.164 16.9933 254.497 16.42 254.924 15.94C255.364 15.46 255.877 15.0867 256.464 14.82C257.064 14.5533 257.717 14.42 258.424 14.42C259.344 14.42 260.104 14.6133 260.704 15C261.317 15.3733 261.804 15.8533 262.164 16.44C262.537 17.0267 262.79 17.6667 262.924 18.36C263.07 19.0533 263.13 19.7133 263.104 20.34H255.364C255.35 20.7933 255.404 21.2267 255.524 21.64C255.644 22.04 255.837 22.4 256.104 22.72C256.37 23.0267 256.71 23.2733 257.124 23.46C257.537 23.6467 258.024 23.74 258.584 23.74C259.304 23.74 259.89 23.5733 260.344 23.24C260.81 22.9067 261.117 22.4 261.264 21.72H262.944C262.717 22.8933 262.217 23.7733 261.444 24.36C260.67 24.9333 259.697 25.22 258.524 25.22ZM261.304 18.84C261.277 18.44 261.184 18.06 261.024 17.7C260.877 17.34 260.67 17.0333 260.404 16.78C260.15 16.5133 259.844 16.3067 259.484 16.16C259.137 16 258.75 15.92 258.324 15.92C257.884 15.92 257.484 16 257.124 16.16C256.777 16.3067 256.477 16.5133 256.224 16.78C255.97 17.0467 255.77 17.36 255.624 17.72C255.477 18.0667 255.39 18.44 255.364 18.84H261.304ZM270.866 20.8C270.559 20.9333 270.133 21.06 269.586 21.18C269.039 21.3 268.466 21.36 267.866 21.36C266.586 21.36 265.673 21.0867 265.126 20.54C264.579 19.98 264.306 19.2 264.306 18.2V14.66H266.006V17.92C266.006 18.6 266.159 19.1067 266.466 19.44C266.786 19.76 267.359 19.92 268.186 19.92C268.693 19.92 269.193 19.8667 269.686 19.76C270.179 19.6533 270.573 19.5333 270.866 19.4V14.66H272.566V25H270.866V20.8Z" fill="#1A1A1A"/>
<rect x="298" width="178" height="36" rx="5" fill="#F7F1E9"/>
<path d="M324 8L326.781 13.9252L333 14.8754L328.5 19.4875L329.562 26L324 22.9252L318.438 26L319.5 19.4875L315 14.8754L321.219 13.9252L324 8Z" fill="#D5B753"/>
<path d="M341.56 10.72H352.68V25H350.78V12.32H343.46V25H341.56V10.72ZM359.778 25.22C358.952 25.22 358.225 25.0867 357.598 24.82C356.985 24.54 356.465 24.16 356.038 23.68C355.612 23.1867 355.292 22.6133 355.078 21.96C354.865 21.3067 354.758 20.6 354.758 19.84C354.758 19.08 354.865 18.3733 355.078 17.72C355.292 17.0533 355.612 16.48 356.038 16C356.465 15.5067 356.985 15.12 357.598 14.84C358.225 14.56 358.952 14.42 359.778 14.42C360.592 14.42 361.312 14.56 361.938 14.84C362.565 15.12 363.092 15.5067 363.518 16C363.945 16.48 364.265 17.0533 364.478 17.72C364.692 18.3733 364.798 19.08 364.798 19.84C364.798 20.6 364.692 21.3067 364.478 21.96C364.265 22.6133 363.945 23.1867 363.518 23.68C363.092 24.16 362.565 24.54 361.938 24.82C361.312 25.0867 360.592 25.22 359.778 25.22ZM359.778 23.74C360.218 23.74 360.632 23.6533 361.018 23.48C361.418 23.3067 361.765 23.06 362.058 22.74C362.352 22.4067 362.578 22 362.738 21.52C362.912 21.0267 362.998 20.4667 362.998 19.84C362.998 19.2133 362.912 18.66 362.738 18.18C362.578 17.6867 362.352 17.2733 362.058 16.94C361.765 16.6067 361.418 16.3533 361.018 16.18C360.632 16.0067 360.218 15.92 359.778 15.92C359.338 15.92 358.918 16.0067 358.518 16.18C358.132 16.3533 357.792 16.6067 357.498 16.94C357.205 17.2733 356.972 17.6867 356.798 18.18C356.638 18.66 356.558 19.2133 356.558 19.84C356.558 20.4667 356.638 21.0267 356.798 21.52C356.972 22 357.205 22.4067 357.498 22.74C357.792 23.06 358.132 23.3067 358.518 23.48C358.918 23.6533 359.338 23.74 359.778 23.74ZM370.883 25.22C370.096 25.22 369.396 25.0933 368.783 24.84C368.183 24.5867 367.676 24.2267 367.263 23.76C366.863 23.2933 366.556 22.74 366.343 22.1C366.143 21.46 366.043 20.7467 366.043 19.96C366.043 19.1867 366.143 18.4667 366.343 17.8C366.543 17.12 366.843 16.5333 367.243 16.04C367.656 15.5333 368.163 15.14 368.763 14.86C369.376 14.5667 370.096 14.42 370.923 14.42C371.509 14.42 372.056 14.4933 372.563 14.64C373.083 14.7733 373.536 14.9867 373.923 15.28C374.323 15.5733 374.649 15.9467 374.903 16.4C375.156 16.84 375.316 17.3667 375.383 17.98H373.623C373.489 17.3267 373.209 16.82 372.783 16.46C372.356 16.1 371.783 15.92 371.063 15.92C370.449 15.92 369.936 16.0333 369.523 16.26C369.109 16.4867 368.776 16.7867 368.523 17.16C368.283 17.5333 368.109 17.9667 368.003 18.46C367.896 18.94 367.843 19.44 367.843 19.96C367.843 20.44 367.896 20.9067 368.003 21.36C368.123 21.8133 368.303 22.22 368.543 22.58C368.783 22.9267 369.089 23.2067 369.463 23.42C369.849 23.6333 370.316 23.74 370.863 23.74C371.703 23.74 372.356 23.52 372.823 23.08C373.303 22.64 373.596 22.02 373.703 21.22H375.443C375.256 22.5133 374.783 23.5067 374.023 24.2C373.263 24.88 372.216 25.22 370.883 25.22ZM379.645 16.16H375.945V14.66H385.045V16.16H381.345V25H379.645V16.16ZM396.029 25.22C395.202 25.22 394.476 25.0867 393.849 24.82C393.236 24.54 392.716 24.16 392.289 23.68C391.862 23.1867 391.542 22.6133 391.329 21.96C391.116 21.3067 391.009 20.6 391.009 19.84C391.009 19.08 391.116 18.3733 391.329 17.72C391.542 17.0533 391.862 16.48 392.289 16C392.716 15.5067 393.236 15.12 393.849 14.84C394.476 14.56 395.202 14.42 396.029 14.42C396.842 14.42 397.562 14.56 398.189 14.84C398.816 15.12 399.342 15.5067 399.769 16C400.196 16.48 400.516 17.0533 400.729 17.72C400.942 18.3733 401.049 19.08 401.049 19.84C401.049 20.6 400.942 21.3067 400.729 21.96C400.516 22.6133 400.196 23.1867 399.769 23.68C399.342 24.16 398.816 24.54 398.189 24.82C397.562 25.0867 396.842 25.22 396.029 25.22ZM396.029 23.74C396.469 23.74 396.882 23.6533 397.269 23.48C397.669 23.3067 398.016 23.06 398.309 22.74C398.602 22.4067 398.829 22 398.989 21.52C399.162 21.0267 399.249 20.4667 399.249 19.84C399.249 19.2133 399.162 18.66 398.989 18.18C398.829 17.6867 398.602 17.2733 398.309 16.94C398.016 16.6067 397.669 16.3533 397.269 16.18C396.882 16.0067 396.469 15.92 396.029 15.92C395.589 15.92 395.169 16.0067 394.769 16.18C394.382 16.3533 394.042 16.6067 393.749 16.94C393.456 17.2733 393.222 17.6867 393.049 18.18C392.889 18.66 392.809 19.2133 392.809 19.84C392.809 20.4667 392.889 21.0267 393.049 21.52C393.222 22 393.456 22.4067 393.749 22.74C394.042 23.06 394.382 23.3067 394.769 23.48C395.169 23.6533 395.589 23.74 396.029 23.74ZM405.633 19.56L402.033 14.66H404.213L406.693 18.28L409.273 14.66H411.313L407.753 19.42L411.753 25H409.573L406.693 20.72L403.813 25H401.753L405.633 19.56ZM413.065 14.66H414.765V16.06H414.805C415.085 15.4867 415.525 15.0733 416.125 14.82C416.725 14.5533 417.385 14.42 418.105 14.42C418.905 14.42 419.598 14.5667 420.185 14.86C420.785 15.1533 421.278 15.5533 421.665 16.06C422.065 16.5533 422.365 17.1267 422.565 17.78C422.765 18.4333 422.865 19.1267 422.865 19.86C422.865 20.6067 422.765 21.3067 422.565 21.96C422.378 22.6 422.085 23.1667 421.685 23.66C421.298 24.14 420.805 24.52 420.205 24.8C419.618 25.08 418.932 25.22 418.145 25.22C417.878 25.22 417.592 25.1933 417.285 25.14C416.978 25.0867 416.672 25 416.365 24.88C416.058 24.76 415.765 24.6 415.485 24.4C415.218 24.1867 414.992 23.9267 414.805 23.62H414.765V28.94H413.065V14.66ZM417.965 23.74C418.538 23.74 419.025 23.6267 419.425 23.4C419.825 23.1733 420.145 22.8733 420.385 22.5C420.625 22.1267 420.798 21.7 420.905 21.22C421.012 20.74 421.065 20.2467 421.065 19.74C421.065 19.26 420.998 18.7933 420.865 18.34C420.745 17.8733 420.552 17.46 420.285 17.1C420.032 16.74 419.698 16.4533 419.285 16.24C418.885 16.0267 418.412 15.92 417.865 15.92C417.292 15.92 416.805 16.0333 416.405 16.26C416.005 16.4867 415.678 16.7867 415.425 17.16C415.172 17.52 414.985 17.9333 414.865 18.4C414.758 18.8667 414.705 19.34 414.705 19.82C414.705 20.3267 414.765 20.82 414.885 21.3C415.005 21.7667 415.192 22.18 415.445 22.54C415.712 22.9 416.052 23.1933 416.465 23.42C416.878 23.6333 417.378 23.74 417.965 23.74ZM427.52 25.22C427.054 25.22 426.614 25.1667 426.2 25.06C425.787 24.9667 425.42 24.8067 425.1 24.58C424.794 24.34 424.547 24.04 424.36 23.68C424.187 23.3067 424.1 22.86 424.1 22.34C424.1 21.7533 424.2 21.2733 424.4 20.9C424.6 20.5267 424.86 20.2267 425.18 20C425.514 19.76 425.887 19.58 426.3 19.46C426.727 19.34 427.16 19.24 427.6 19.16C428.067 19.0667 428.507 19 428.92 18.96C429.347 18.9067 429.72 18.84 430.04 18.76C430.36 18.6667 430.614 18.54 430.8 18.38C430.987 18.2067 431.08 17.96 431.08 17.64C431.08 17.2667 431.007 16.9667 430.86 16.74C430.727 16.5133 430.547 16.34 430.32 16.22C430.107 16.1 429.86 16.02 429.58 15.98C429.314 15.94 429.047 15.92 428.78 15.92C428.06 15.92 427.46 16.06 426.98 16.34C426.5 16.6067 426.24 17.12 426.2 17.88H424.5C424.527 17.24 424.66 16.7 424.9 16.26C425.14 15.82 425.46 15.4667 425.86 15.2C426.26 14.92 426.714 14.72 427.22 14.6C427.74 14.48 428.294 14.42 428.88 14.42C429.347 14.42 429.807 14.4533 430.26 14.52C430.727 14.5867 431.147 14.7267 431.52 14.94C431.894 15.14 432.194 15.4267 432.42 15.8C432.647 16.1733 432.76 16.66 432.76 17.26V22.58C432.76 22.98 432.78 23.2733 432.82 23.46C432.874 23.6467 433.034 23.74 433.3 23.74C433.42 23.74 433.594 23.7067 433.82 23.64V24.96C433.527 25.1333 433.12 25.22 432.6 25.22C432.16 25.22 431.807 25.1 431.54 24.86C431.287 24.6067 431.16 24.2 431.16 23.64C430.694 24.2 430.147 24.6067 429.52 24.86C428.907 25.1 428.24 25.22 427.52 25.22ZM427.9 23.74C428.46 23.74 428.94 23.6667 429.34 23.52C429.74 23.36 430.067 23.1667 430.32 22.94C430.574 22.7 430.76 22.4467 430.88 22.18C431 21.9 431.06 21.64 431.06 21.4V19.66C430.847 19.8333 430.567 19.9533 430.22 20.02C429.874 20.0867 429.507 20.1467 429.12 20.2C428.747 20.2533 428.367 20.3067 427.98 20.36C427.594 20.4133 427.247 20.5067 426.94 20.64C426.634 20.7733 426.38 20.9667 426.18 21.22C425.994 21.46 425.9 21.7933 425.9 22.22C425.9 22.5 425.954 22.74 426.06 22.94C426.18 23.1267 426.327 23.28 426.5 23.4C426.687 23.52 426.9 23.6067 427.14 23.66C427.38 23.7133 427.634 23.74 427.9 23.74ZM435.203 14.66H436.903V18.78H442.143V14.66H443.843V25H442.143V20.24H436.903V25H435.203V14.66ZM446.194 14.66H447.894V18.62H451.094C452.107 18.62 452.921 18.9 453.534 19.46C454.147 20.0067 454.454 20.78 454.454 21.78C454.454 22.7533 454.161 23.5333 453.574 24.12C452.987 24.7067 452.187 25 451.174 25H446.194V14.66ZM450.554 23.5C451.981 23.5 452.694 22.9267 452.694 21.78C452.694 20.6467 451.981 20.08 450.554 20.08H447.894V23.5H450.554ZM456.094 14.66H457.794V25H456.094V14.66Z" fill="#1A1A1A"/>
<rect x="484" width="272" height="36" rx="5" fill="#F7F1E9"/>
<path d="M510 8L512.781 13.9252L519 14.8754L514.5 19.4875L515.562 26L510 22.9252L504.438 26L505.5 19.4875L501 14.8754L507.219 13.9252L510 8Z" fill="#D5B753"/>
<path d="M527.56 10.72H538.68V25H536.78V12.32H529.46V25H527.56V10.72ZM545.718 25.22C544.892 25.22 544.165 25.0867 543.538 24.82C542.925 24.5533 542.412 24.18 541.998 23.7C541.585 23.22 541.272 22.6467 541.058 21.98C540.858 21.3133 540.758 20.5867 540.758 19.8C540.758 19.0267 540.878 18.3133 541.118 17.66C541.358 16.9933 541.692 16.42 542.118 15.94C542.558 15.46 543.072 15.0867 543.658 14.82C544.258 14.5533 544.912 14.42 545.618 14.42C546.538 14.42 547.298 14.6133 547.898 15C548.512 15.3733 548.998 15.8533 549.358 16.44C549.732 17.0267 549.985 17.6667 550.118 18.36C550.265 19.0533 550.325 19.7133 550.298 20.34H542.558C542.545 20.7933 542.598 21.2267 542.718 21.64C542.838 22.04 543.032 22.4 543.298 22.72C543.565 23.0267 543.905 23.2733 544.318 23.46C544.732 23.6467 545.218 23.74 545.778 23.74C546.498 23.74 547.085 23.5733 547.538 23.24C548.005 22.9067 548.312 22.4 548.458 21.72H550.138C549.912 22.8933 549.412 23.7733 548.638 24.36C547.865 24.9333 546.892 25.22 545.718 25.22ZM548.498 18.84C548.472 18.44 548.378 18.06 548.218 17.7C548.072 17.34 547.865 17.0333 547.598 16.78C547.345 16.5133 547.038 16.3067 546.678 16.16C546.332 16 545.945 15.92 545.518 15.92C545.078 15.92 544.678 16 544.318 16.16C543.972 16.3067 543.672 16.5133 543.418 16.78C543.165 17.0467 542.965 17.36 542.818 17.72C542.672 18.0667 542.585 18.44 542.558 18.84H548.498ZM551.92 14.66H553.62V16.06H553.66C553.94 15.4867 554.38 15.0733 554.98 14.82C555.58 14.5533 556.24 14.42 556.96 14.42C557.76 14.42 558.454 14.5667 559.04 14.86C559.64 15.1533 560.134 15.5533 560.52 16.06C560.92 16.5533 561.22 17.1267 561.42 17.78C561.62 18.4333 561.72 19.1267 561.72 19.86C561.72 20.6067 561.62 21.3067 561.42 21.96C561.234 22.6 560.94 23.1667 560.54 23.66C560.154 24.14 559.66 24.52 559.06 24.8C558.474 25.08 557.787 25.22 557 25.22C556.734 25.22 556.447 25.1933 556.14 25.14C555.834 25.0867 555.527 25 555.22 24.88C554.914 24.76 554.62 24.6 554.34 24.4C554.074 24.1867 553.847 23.9267 553.66 23.62H553.62V28.94H551.92V14.66ZM556.82 23.74C557.394 23.74 557.88 23.6267 558.28 23.4C558.68 23.1733 559 22.8733 559.24 22.5C559.48 22.1267 559.654 21.7 559.76 21.22C559.867 20.74 559.92 20.2467 559.92 19.74C559.92 19.26 559.854 18.7933 559.72 18.34C559.6 17.8733 559.407 17.46 559.14 17.1C558.887 16.74 558.554 16.4533 558.14 16.24C557.74 16.0267 557.267 15.92 556.72 15.92C556.147 15.92 555.66 16.0333 555.26 16.26C554.86 16.4867 554.534 16.7867 554.28 17.16C554.027 17.52 553.84 17.9333 553.72 18.4C553.614 18.8667 553.56 19.34 553.56 19.82C553.56 20.3267 553.62 20.82 553.74 21.3C553.86 21.7667 554.047 22.18 554.3 22.54C554.567 22.9 554.907 23.1933 555.32 23.42C555.734 23.6333 556.234 23.74 556.82 23.74ZM567.916 25.22C567.089 25.22 566.363 25.0867 565.736 24.82C565.123 24.5533 564.609 24.18 564.196 23.7C563.783 23.22 563.469 22.6467 563.256 21.98C563.056 21.3133 562.956 20.5867 562.956 19.8C562.956 19.0267 563.076 18.3133 563.316 17.66C563.556 16.9933 563.889 16.42 564.316 15.94C564.756 15.46 565.269 15.0867 565.856 14.82C566.456 14.5533 567.109 14.42 567.816 14.42C568.736 14.42 569.496 14.6133 570.096 15C570.709 15.3733 571.196 15.8533 571.556 16.44C571.929 17.0267 572.183 17.6667 572.316 18.36C572.463 19.0533 572.523 19.7133 572.496 20.34H564.756C564.743 20.7933 564.796 21.2267 564.916 21.64C565.036 22.04 565.229 22.4 565.496 22.72C565.763 23.0267 566.103 23.2733 566.516 23.46C566.929 23.6467 567.416 23.74 567.976 23.74C568.696 23.74 569.283 23.5733 569.736 23.24C570.203 22.9067 570.509 22.4 570.656 21.72H572.336C572.109 22.8933 571.609 23.7733 570.836 24.36C570.063 24.9333 569.089 25.22 567.916 25.22ZM570.696 18.84C570.669 18.44 570.576 18.06 570.416 17.7C570.269 17.34 570.063 17.0333 569.796 16.78C569.543 16.5133 569.236 16.3067 568.876 16.16C568.529 16 568.143 15.92 567.716 15.92C567.276 15.92 566.876 16 566.516 16.16C566.169 16.3067 565.869 16.5133 565.616 16.78C565.363 17.0467 565.163 17.36 565.016 17.72C564.869 18.0667 564.783 18.44 564.756 18.84H570.696ZM574.098 14.66H581.178V16.16H575.798V25H574.098V14.66ZM586.795 25.22C585.968 25.22 585.241 25.0867 584.615 24.82C584.001 24.54 583.481 24.16 583.055 23.68C582.628 23.1867 582.308 22.6133 582.095 21.96C581.881 21.3067 581.775 20.6 581.775 19.84C581.775 19.08 581.881 18.3733 582.095 17.72C582.308 17.0533 582.628 16.48 583.055 16C583.481 15.5067 584.001 15.12 584.615 14.84C585.241 14.56 585.968 14.42 586.795 14.42C587.608 14.42 588.328 14.56 588.955 14.84C589.581 15.12 590.108 15.5067 590.535 16C590.961 16.48 591.281 17.0533 591.495 17.72C591.708 18.3733 591.815 19.08 591.815 19.84C591.815 20.6 591.708 21.3067 591.495 21.96C591.281 22.6133 590.961 23.1867 590.535 23.68C590.108 24.16 589.581 24.54 588.955 24.82C588.328 25.0867 587.608 25.22 586.795 25.22ZM586.795 23.74C587.235 23.74 587.648 23.6533 588.035 23.48C588.435 23.3067 588.781 23.06 589.075 22.74C589.368 22.4067 589.595 22 589.755 21.52C589.928 21.0267 590.015 20.4667 590.015 19.84C590.015 19.2133 589.928 18.66 589.755 18.18C589.595 17.6867 589.368 17.2733 589.075 16.94C588.781 16.6067 588.435 16.3533 588.035 16.18C587.648 16.0067 587.235 15.92 586.795 15.92C586.355 15.92 585.935 16.0067 585.535 16.18C585.148 16.3533 584.808 16.6067 584.515 16.94C584.221 17.2733 583.988 17.6867 583.815 18.18C583.655 18.66 583.575 19.2133 583.575 19.84C583.575 20.4667 583.655 21.0267 583.815 21.52C583.988 22 584.221 22.4067 584.515 22.74C584.808 23.06 585.148 23.3067 585.535 23.48C585.935 23.6533 586.355 23.74 586.795 23.74ZM593.619 14.66H598.399C598.852 14.66 599.286 14.6933 599.699 14.76C600.126 14.8267 600.506 14.9533 600.839 15.14C601.172 15.3133 601.439 15.5667 601.639 15.9C601.839 16.2333 601.939 16.66 601.939 17.18C601.939 17.74 601.806 18.1933 601.539 18.54C601.272 18.8867 600.899 19.1733 600.419 19.4V19.42C601.019 19.54 601.492 19.82 601.839 20.26C602.199 20.7 602.379 21.2667 602.379 21.96C602.379 22.4 602.299 22.8067 602.139 23.18C601.992 23.5533 601.779 23.8733 601.499 24.14C601.219 24.4067 600.886 24.62 600.499 24.78C600.112 24.9267 599.692 25 599.239 25H593.619V14.66ZM598.919 23.56C599.479 23.56 599.899 23.4 600.179 23.08C600.472 22.7467 600.619 22.3333 600.619 21.84C600.619 21.3733 600.466 21 600.159 20.72C599.852 20.44 599.339 20.3 598.619 20.3H595.299V23.56H598.919ZM598.219 18.9C598.952 18.9 599.459 18.7667 599.739 18.5C600.032 18.2333 600.179 17.88 600.179 17.44C600.179 17.0133 600.039 16.6867 599.759 16.46C599.479 16.22 598.966 16.1 598.219 16.1H595.299V18.9H598.219ZM608.68 25.22C607.853 25.22 607.127 25.0867 606.5 24.82C605.887 24.54 605.367 24.16 604.94 23.68C604.513 23.1867 604.193 22.6133 603.98 21.96C603.767 21.3067 603.66 20.6 603.66 19.84C603.66 19.08 603.767 18.3733 603.98 17.72C604.193 17.0533 604.513 16.48 604.94 16C605.367 15.5067 605.887 15.12 606.5 14.84C607.127 14.56 607.853 14.42 608.68 14.42C609.493 14.42 610.213 14.56 610.84 14.84C611.467 15.12 611.993 15.5067 612.42 16C612.847 16.48 613.167 17.0533 613.38 17.72C613.593 18.3733 613.7 19.08 613.7 19.84C613.7 20.6 613.593 21.3067 613.38 21.96C613.167 22.6133 612.847 23.1867 612.42 23.68C611.993 24.16 611.467 24.54 610.84 24.82C610.213 25.0867 609.493 25.22 608.68 25.22ZM608.68 23.74C609.12 23.74 609.533 23.6533 609.92 23.48C610.32 23.3067 610.667 23.06 610.96 22.74C611.253 22.4067 611.48 22 611.64 21.52C611.813 21.0267 611.9 20.4667 611.9 19.84C611.9 19.2133 611.813 18.66 611.64 18.18C611.48 17.6867 611.253 17.2733 610.96 16.94C610.667 16.6067 610.32 16.3533 609.92 16.18C609.533 16.0067 609.12 15.92 608.68 15.92C608.24 15.92 607.82 16.0067 607.42 16.18C607.033 16.3533 606.693 16.6067 606.4 16.94C606.107 17.2733 605.873 17.6867 605.7 18.18C605.54 18.66 605.46 19.2133 605.46 19.84C605.46 20.4667 605.54 21.0267 605.7 21.52C605.873 22 606.107 22.4067 606.4 22.74C606.693 23.06 607.033 23.3067 607.42 23.48C607.82 23.6533 608.24 23.74 608.68 23.74ZM615.564 14.66H617.264V16.06H617.304C617.584 15.4867 618.024 15.0733 618.624 14.82C619.224 14.5533 619.884 14.42 620.604 14.42C621.404 14.42 622.098 14.5667 622.684 14.86C623.284 15.1533 623.778 15.5533 624.164 16.06C624.564 16.5533 624.864 17.1267 625.064 17.78C625.264 18.4333 625.364 19.1267 625.364 19.86C625.364 20.6067 625.264 21.3067 625.064 21.96C624.878 22.6 624.584 23.1667 624.184 23.66C623.798 24.14 623.304 24.52 622.704 24.8C622.118 25.08 621.431 25.22 620.644 25.22C620.378 25.22 620.091 25.1933 619.784 25.14C619.478 25.0867 619.171 25 618.864 24.88C618.558 24.76 618.264 24.6 617.984 24.4C617.718 24.1867 617.491 23.9267 617.304 23.62H617.264V28.94H615.564V14.66ZM620.464 23.74C621.038 23.74 621.524 23.6267 621.924 23.4C622.324 23.1733 622.644 22.8733 622.884 22.5C623.124 22.1267 623.298 21.7 623.404 21.22C623.511 20.74 623.564 20.2467 623.564 19.74C623.564 19.26 623.498 18.7933 623.364 18.34C623.244 17.8733 623.051 17.46 622.784 17.1C622.531 16.74 622.198 16.4533 621.784 16.24C621.384 16.0267 620.911 15.92 620.364 15.92C619.791 15.92 619.304 16.0333 618.904 16.26C618.504 16.4867 618.178 16.7867 617.924 17.16C617.671 17.52 617.484 17.9333 617.364 18.4C617.258 18.8667 617.204 19.34 617.204 19.82C617.204 20.3267 617.264 20.82 617.384 21.3C617.504 21.7667 617.691 22.18 617.944 22.54C618.211 22.9 618.551 23.1933 618.964 23.42C619.378 23.6333 619.878 23.74 620.464 23.74ZM627.16 14.66H628.86V18.78H634.1V14.66H635.8V25H634.1V20.24H628.86V25H627.16V14.66ZM641.011 25.22C640.544 25.22 640.104 25.1667 639.691 25.06C639.278 24.9667 638.911 24.8067 638.591 24.58C638.284 24.34 638.038 24.04 637.851 23.68C637.678 23.3067 637.591 22.86 637.591 22.34C637.591 21.7533 637.691 21.2733 637.891 20.9C638.091 20.5267 638.351 20.2267 638.671 20C639.004 19.76 639.378 19.58 639.791 19.46C640.218 19.34 640.651 19.24 641.091 19.16C641.558 19.0667 641.998 19 642.411 18.96C642.838 18.9067 643.211 18.84 643.531 18.76C643.851 18.6667 644.104 18.54 644.291 18.38C644.478 18.2067 644.571 17.96 644.571 17.64C644.571 17.2667 644.498 16.9667 644.351 16.74C644.218 16.5133 644.038 16.34 643.811 16.22C643.598 16.1 643.351 16.02 643.071 15.98C642.804 15.94 642.538 15.92 642.271 15.92C641.551 15.92 640.951 16.06 640.471 16.34C639.991 16.6067 639.731 17.12 639.691 17.88H637.991C638.018 17.24 638.151 16.7 638.391 16.26C638.631 15.82 638.951 15.4667 639.351 15.2C639.751 14.92 640.204 14.72 640.711 14.6C641.231 14.48 641.784 14.42 642.371 14.42C642.838 14.42 643.298 14.4533 643.751 14.52C644.218 14.5867 644.638 14.7267 645.011 14.94C645.384 15.14 645.684 15.4267 645.911 15.8C646.138 16.1733 646.251 16.66 646.251 17.26V22.58C646.251 22.98 646.271 23.2733 646.311 23.46C646.364 23.6467 646.524 23.74 646.791 23.74C646.911 23.74 647.084 23.7067 647.311 23.64V24.96C647.018 25.1333 646.611 25.22 646.091 25.22C645.651 25.22 645.298 25.1 645.031 24.86C644.778 24.6067 644.651 24.2 644.651 23.64C644.184 24.2 643.638 24.6067 643.011 24.86C642.398 25.1 641.731 25.22 641.011 25.22ZM641.391 23.74C641.951 23.74 642.431 23.6667 642.831 23.52C643.231 23.36 643.558 23.1667 643.811 22.94C644.064 22.7 644.251 22.4467 644.371 22.18C644.491 21.9 644.551 21.64 644.551 21.4V19.66C644.338 19.8333 644.058 19.9533 643.711 20.02C643.364 20.0867 642.998 20.1467 642.611 20.2C642.238 20.2533 641.858 20.3067 641.471 20.36C641.084 20.4133 640.738 20.5067 640.431 20.64C640.124 20.7733 639.871 20.9667 639.671 21.22C639.484 21.46 639.391 21.7933 639.391 22.22C639.391 22.5 639.444 22.74 639.551 22.94C639.671 23.1267 639.818 23.28 639.991 23.4C640.178 23.52 640.391 23.6067 640.631 23.66C640.871 23.7133 641.124 23.74 641.391 23.74ZM650.873 20.96C650.14 20.8533 649.54 20.52 649.073 19.96C648.607 19.4 648.373 18.6933 648.373 17.84C648.373 16.8667 648.66 16.0933 649.233 15.52C649.82 14.9467 650.613 14.66 651.613 14.66H656.853V25H655.153V21.02H652.893L649.733 25H647.473L650.873 20.96ZM655.153 19.56V16.16H652.153C651.433 16.16 650.913 16.3133 650.593 16.62C650.273 16.9267 650.113 17.34 650.113 17.86C650.113 18.3933 650.273 18.8133 650.593 19.12C650.913 19.4133 651.433 19.56 652.153 19.56H655.153ZM664.582 14.66H666.282V19.6L671.022 14.66H673.282L668.702 19.14L673.822 25H671.642L667.322 20.08L666.282 21.1V25H664.582V14.66ZM679.37 25.22C678.543 25.22 677.816 25.0867 677.19 24.82C676.576 24.54 676.056 24.16 675.63 23.68C675.203 23.1867 674.883 22.6133 674.67 21.96C674.456 21.3067 674.35 20.6 674.35 19.84C674.35 19.08 674.456 18.3733 674.67 17.72C674.883 17.0533 675.203 16.48 675.63 16C676.056 15.5067 676.576 15.12 677.19 14.84C677.816 14.56 678.543 14.42 679.37 14.42C680.183 14.42 680.903 14.56 681.53 14.84C682.156 15.12 682.683 15.5067 683.11 16C683.536 16.48 683.856 17.0533 684.07 17.72C684.283 18.3733 684.39 19.08 684.39 19.84C684.39 20.6 684.283 21.3067 684.07 21.96C683.856 22.6133 683.536 23.1867 683.11 23.68C682.683 24.16 682.156 24.54 681.53 24.82C680.903 25.0867 680.183 25.22 679.37 25.22ZM679.37 23.74C679.81 23.74 680.223 23.6533 680.61 23.48C681.01 23.3067 681.356 23.06 681.65 22.74C681.943 22.4067 682.17 22 682.33 21.52C682.503 21.0267 682.59 20.4667 682.59 19.84C682.59 19.2133 682.503 18.66 682.33 18.18C682.17 17.6867 681.943 17.2733 681.65 16.94C681.356 16.6067 681.01 16.3533 680.61 16.18C680.223 16.0067 679.81 15.92 679.37 15.92C678.93 15.92 678.51 16.0067 678.11 16.18C677.723 16.3533 677.383 16.6067 677.09 16.94C676.796 17.2733 676.563 17.6867 676.39 18.18C676.23 18.66 676.15 19.2133 676.15 19.84C676.15 20.4667 676.23 21.0267 676.39 21.52C676.563 22 676.796 22.4067 677.09 22.74C677.383 23.06 677.723 23.3067 678.11 23.48C678.51 23.6533 678.93 23.74 679.37 23.74ZM686.194 14.66H688.634L691.774 23.04H691.814L694.954 14.66H697.394V25H695.694V16.8L692.574 25H691.014L687.894 16.8V25H686.194V14.66ZM699.764 14.66H701.464V18.78H706.704V14.66H708.404V25H706.704V20.24H701.464V25H699.764V14.66ZM713.615 25.22C713.148 25.22 712.708 25.1667 712.295 25.06C711.882 24.9667 711.515 24.8067 711.195 24.58C710.888 24.34 710.642 24.04 710.455 23.68C710.282 23.3067 710.195 22.86 710.195 22.34C710.195 21.7533 710.295 21.2733 710.495 20.9C710.695 20.5267 710.955 20.2267 711.275 20C711.608 19.76 711.982 19.58 712.395 19.46C712.822 19.34 713.255 19.24 713.695 19.16C714.162 19.0667 714.602 19 715.015 18.96C715.442 18.9067 715.815 18.84 716.135 18.76C716.455 18.6667 716.708 18.54 716.895 18.38C717.082 18.2067 717.175 17.96 717.175 17.64C717.175 17.2667 717.102 16.9667 716.955 16.74C716.822 16.5133 716.642 16.34 716.415 16.22C716.202 16.1 715.955 16.02 715.675 15.98C715.408 15.94 715.142 15.92 714.875 15.92C714.155 15.92 713.555 16.06 713.075 16.34C712.595 16.6067 712.335 17.12 712.295 17.88H710.595C710.622 17.24 710.755 16.7 710.995 16.26C711.235 15.82 711.555 15.4667 711.955 15.2C712.355 14.92 712.808 14.72 713.315 14.6C713.835 14.48 714.388 14.42 714.975 14.42C715.442 14.42 715.902 14.4533 716.355 14.52C716.822 14.5867 717.242 14.7267 717.615 14.94C717.988 15.14 718.288 15.4267 718.515 15.8C718.742 16.1733 718.855 16.66 718.855 17.26V22.58C718.855 22.98 718.875 23.2733 718.915 23.46C718.968 23.6467 719.128 23.74 719.395 23.74C719.515 23.74 719.688 23.7067 719.915 23.64V24.96C719.622 25.1333 719.215 25.22 718.695 25.22C718.255 25.22 717.902 25.1 717.635 24.86C717.382 24.6067 717.255 24.2 717.255 23.64C716.788 24.2 716.242 24.6067 715.615 24.86C715.002 25.1 714.335 25.22 713.615 25.22ZM713.995 23.74C714.555 23.74 715.035 23.6667 715.435 23.52C715.835 23.36 716.162 23.1667 716.415 22.94C716.668 22.7 716.855 22.4467 716.975 22.18C717.095 21.9 717.155 21.64 717.155 21.4V19.66C716.942 19.8333 716.662 19.9533 716.315 20.02C715.968 20.0867 715.602 20.1467 715.215 20.2C714.842 20.2533 714.462 20.3067 714.075 20.36C713.688 20.4133 713.342 20.5067 713.035 20.64C712.728 20.7733 712.475 20.9667 712.275 21.22C712.088 21.46 711.995 21.7933 711.995 22.22C711.995 22.5 712.048 22.74 712.155 22.94C712.275 23.1267 712.422 23.28 712.595 23.4C712.782 23.52 712.995 23.6067 713.235 23.66C713.475 23.7133 713.728 23.74 713.995 23.74ZM723.797 16.16H720.097V14.66H729.197V16.16H725.497V25H723.797V16.16ZM733.215 25.22C732.748 25.22 732.308 25.1667 731.895 25.06C731.482 24.9667 731.115 24.8067 730.795 24.58C730.488 24.34 730.242 24.04 730.055 23.68C729.882 23.3067 729.795 22.86 729.795 22.34C729.795 21.7533 729.895 21.2733 730.095 20.9C730.295 20.5267 730.555 20.2267 730.875 20C731.208 19.76 731.582 19.58 731.995 19.46C732.422 19.34 732.855 19.24 733.295 19.16C733.762 19.0667 734.202 19 734.615 18.96C735.042 18.9067 735.415 18.84 735.735 18.76C736.055 18.6667 736.308 18.54 736.495 18.38C736.682 18.2067 736.775 17.96 736.775 17.64C736.775 17.2667 736.702 16.9667 736.555 16.74C736.422 16.5133 736.242 16.34 736.015 16.22C735.802 16.1 735.555 16.02 735.275 15.98C735.008 15.94 734.742 15.92 734.475 15.92C733.755 15.92 733.155 16.06 732.675 16.34C732.195 16.6067 731.935 17.12 731.895 17.88H730.195C730.222 17.24 730.355 16.7 730.595 16.26C730.835 15.82 731.155 15.4667 731.555 15.2C731.955 14.92 732.408 14.72 732.915 14.6C733.435 14.48 733.988 14.42 734.575 14.42C735.042 14.42 735.502 14.4533 735.955 14.52C736.422 14.5867 736.842 14.7267 737.215 14.94C737.588 15.14 737.888 15.4267 738.115 15.8C738.342 16.1733 738.455 16.66 738.455 17.26V22.58C738.455 22.98 738.475 23.2733 738.515 23.46C738.568 23.6467 738.728 23.74 738.995 23.74C739.115 23.74 739.288 23.7067 739.515 23.64V24.96C739.222 25.1333 738.815 25.22 738.295 25.22C737.855 25.22 737.502 25.1 737.235 24.86C736.982 24.6067 736.855 24.2 736.855 23.64C736.388 24.2 735.842 24.6067 735.215 24.86C734.602 25.1 733.935 25.22 733.215 25.22ZM733.595 23.74C734.155 23.74 734.635 23.6667 735.035 23.52C735.435 23.36 735.762 23.1667 736.015 22.94C736.268 22.7 736.455 22.4467 736.575 22.18C736.695 21.9 736.755 21.64 736.755 21.4V19.66C736.542 19.8333 736.262 19.9533 735.915 20.02C735.568 20.0867 735.202 20.1467 734.815 20.2C734.442 20.2533 734.062 20.3067 733.675 20.36C733.288 20.4133 732.942 20.5067 732.635 20.64C732.328 20.7733 732.075 20.9667 731.875 21.22C731.688 21.46 731.595 21.7933 731.595 22.22C731.595 22.5 731.648 22.74 731.755 22.94C731.875 23.1267 732.022 23.28 732.195 23.4C732.382 23.52 732.595 23.6067 732.835 23.66C733.075 23.7133 733.328 23.74 733.595 23.74Z" fill="#1A1A1A"/>
<rect x="764" width="169" height="36" rx="5" fill="#F7F1E9"/>
<path d="M790 8L792.781 13.9252L799 14.8754L794.5 19.4875L795.562 26L790 22.9252L784.438 26L785.5 19.4875L781 14.8754L787.219 13.9252L790 8Z" fill="#D5B753"/>
<path d="M807.56 10.72H809.46V17.64L816.7 10.72H819.16L812.36 17.08L819.4 25H817L810.92 18.24L809.46 19.6V25H807.56V10.72ZM824.88 25.22C824.053 25.22 823.327 25.0867 822.7 24.82C822.087 24.54 821.567 24.16 821.14 23.68C820.713 23.1867 820.393 22.6133 820.18 21.96C819.967 21.3067 819.86 20.6 819.86 19.84C819.86 19.08 819.967 18.3733 820.18 17.72C820.393 17.0533 820.713 16.48 821.14 16C821.567 15.5067 822.087 15.12 822.7 14.84C823.327 14.56 824.053 14.42 824.88 14.42C825.693 14.42 826.413 14.56 827.04 14.84C827.667 15.12 828.193 15.5067 828.62 16C829.047 16.48 829.367 17.0533 829.58 17.72C829.793 18.3733 829.9 19.08 829.9 19.84C829.9 20.6 829.793 21.3067 829.58 21.96C829.367 22.6133 829.047 23.1867 828.62 23.68C828.193 24.16 827.667 24.54 827.04 24.82C826.413 25.0867 825.693 25.22 824.88 25.22ZM824.88 23.74C825.32 23.74 825.733 23.6533 826.12 23.48C826.52 23.3067 826.867 23.06 827.16 22.74C827.453 22.4067 827.68 22 827.84 21.52C828.013 21.0267 828.1 20.4667 828.1 19.84C828.1 19.2133 828.013 18.66 827.84 18.18C827.68 17.6867 827.453 17.2733 827.16 16.94C826.867 16.6067 826.52 16.3533 826.12 16.18C825.733 16.0067 825.32 15.92 824.88 15.92C824.44 15.92 824.02 16.0067 823.62 16.18C823.233 16.3533 822.893 16.6067 822.6 16.94C822.307 17.2733 822.073 17.6867 821.9 18.18C821.74 18.66 821.66 19.2133 821.66 19.84C821.66 20.4667 821.74 21.0267 821.9 21.52C822.073 22 822.307 22.4067 822.6 22.74C822.893 23.06 823.233 23.3067 823.62 23.48C824.02 23.6533 824.44 23.74 824.88 23.74ZM831.624 25.12C831.451 25.12 831.271 25.1 831.084 25.06C830.898 25.0333 830.744 25.0067 830.624 24.98V23.48C830.758 23.52 830.878 23.5467 830.984 23.56C831.104 23.5733 831.218 23.58 831.324 23.58C831.764 23.58 832.098 23.4067 832.324 23.06C832.564 22.7133 832.738 22.18 832.844 21.46C832.964 20.74 833.038 19.82 833.064 18.7C833.091 17.5667 833.118 16.22 833.144 14.66H840.404V25H838.704V16.16H834.784C834.744 17.3733 834.698 18.5267 834.644 19.62C834.604 20.7 834.491 21.6467 834.304 22.46C834.118 23.2733 833.818 23.92 833.404 24.4C832.991 24.88 832.398 25.12 831.624 25.12ZM844.954 20.96C844.22 20.8533 843.62 20.52 843.154 19.96C842.687 19.4 842.454 18.6933 842.454 17.84C842.454 16.8667 842.74 16.0933 843.314 15.52C843.9 14.9467 844.694 14.66 845.694 14.66H850.934V25H849.234V21.02H846.974L843.814 25H841.554L844.954 20.96ZM849.234 19.56V16.16H846.234C845.514 16.16 844.994 16.3133 844.674 16.62C844.354 16.9267 844.194 17.34 844.194 17.86C844.194 18.3933 844.354 18.8133 844.674 19.12C844.994 19.4133 845.514 19.56 846.234 19.56H849.234ZM857.576 25.22C856.79 25.22 856.09 25.0933 855.476 24.84C854.876 24.5867 854.37 24.2267 853.956 23.76C853.556 23.2933 853.25 22.74 853.036 22.1C852.836 21.46 852.736 20.7467 852.736 19.96C852.736 19.1867 852.836 18.4667 853.036 17.8C853.236 17.12 853.536 16.5333 853.936 16.04C854.35 15.5333 854.856 15.14 855.456 14.86C856.07 14.5667 856.79 14.42 857.616 14.42C858.203 14.42 858.75 14.4933 859.256 14.64C859.776 14.7733 860.23 14.9867 860.616 15.28C861.016 15.5733 861.343 15.9467 861.596 16.4C861.85 16.84 862.01 17.3667 862.076 17.98H860.316C860.183 17.3267 859.903 16.82 859.476 16.46C859.05 16.1 858.476 15.92 857.756 15.92C857.143 15.92 856.63 16.0333 856.216 16.26C855.803 16.4867 855.47 16.7867 855.216 17.16C854.976 17.5333 854.803 17.9667 854.696 18.46C854.59 18.94 854.536 19.44 854.536 19.96C854.536 20.44 854.59 20.9067 854.696 21.36C854.816 21.8133 854.996 22.22 855.236 22.58C855.476 22.9267 855.783 23.2067 856.156 23.42C856.543 23.6333 857.01 23.74 857.556 23.74C858.396 23.74 859.05 23.52 859.516 23.08C859.996 22.64 860.29 22.02 860.396 21.22H862.136C861.95 22.5133 861.476 23.5067 860.716 24.2C859.956 24.88 858.91 25.22 857.576 25.22ZM868.299 25.22C867.472 25.22 866.745 25.0867 866.119 24.82C865.505 24.54 864.985 24.16 864.559 23.68C864.132 23.1867 863.812 22.6133 863.599 21.96C863.385 21.3067 863.279 20.6 863.279 19.84C863.279 19.08 863.385 18.3733 863.599 17.72C863.812 17.0533 864.132 16.48 864.559 16C864.985 15.5067 865.505 15.12 866.119 14.84C866.745 14.56 867.472 14.42 868.299 14.42C869.112 14.42 869.832 14.56 870.459 14.84C871.085 15.12 871.612 15.5067 872.039 16C872.465 16.48 872.785 17.0533 872.999 17.72C873.212 18.3733 873.319 19.08 873.319 19.84C873.319 20.6 873.212 21.3067 872.999 21.96C872.785 22.6133 872.465 23.1867 872.039 23.68C871.612 24.16 871.085 24.54 870.459 24.82C869.832 25.0867 869.112 25.22 868.299 25.22ZM868.299 23.74C868.739 23.74 869.152 23.6533 869.539 23.48C869.939 23.3067 870.285 23.06 870.579 22.74C870.872 22.4067 871.099 22 871.259 21.52C871.432 21.0267 871.519 20.4667 871.519 19.84C871.519 19.2133 871.432 18.66 871.259 18.18C871.099 17.6867 870.872 17.2733 870.579 16.94C870.285 16.6067 869.939 16.3533 869.539 16.18C869.152 16.0067 868.739 15.92 868.299 15.92C867.859 15.92 867.439 16.0067 867.039 16.18C866.652 16.3533 866.312 16.6067 866.019 16.94C865.725 17.2733 865.492 17.6867 865.319 18.18C865.159 18.66 865.079 19.2133 865.079 19.84C865.079 20.4667 865.159 21.0267 865.319 21.52C865.492 22 865.725 22.4067 866.019 22.74C866.312 23.06 866.652 23.3067 867.039 23.48C867.439 23.6533 867.859 23.74 868.299 23.74ZM881.323 20.8C881.016 20.9333 880.59 21.06 880.043 21.18C879.496 21.3 878.923 21.36 878.323 21.36C877.043 21.36 876.13 21.0867 875.583 20.54C875.036 19.98 874.763 19.2 874.763 18.2V14.66H876.463V17.92C876.463 18.6 876.616 19.1067 876.923 19.44C877.243 19.76 877.816 19.92 878.643 19.92C879.15 19.92 879.65 19.8667 880.143 19.76C880.636 19.6533 881.03 19.5333 881.323 19.4V14.66H883.023V25H881.323V20.8ZM885.392 14.66H887.092V18.78H892.332V14.66H894.032V25H892.332V20.24H887.092V25H885.392V14.66ZM899.243 25.22C898.776 25.22 898.336 25.1667 897.923 25.06C897.51 24.9667 897.143 24.8067 896.823 24.58C896.516 24.34 896.27 24.04 896.083 23.68C895.91 23.3067 895.823 22.86 895.823 22.34C895.823 21.7533 895.923 21.2733 896.123 20.9C896.323 20.5267 896.583 20.2267 896.903 20C897.236 19.76 897.61 19.58 898.023 19.46C898.45 19.34 898.883 19.24 899.323 19.16C899.79 19.0667 900.23 19 900.643 18.96C901.07 18.9067 901.443 18.84 901.763 18.76C902.083 18.6667 902.336 18.54 902.523 18.38C902.71 18.2067 902.803 17.96 902.803 17.64C902.803 17.2667 902.73 16.9667 902.583 16.74C902.45 16.5133 902.27 16.34 902.043 16.22C901.83 16.1 901.583 16.02 901.303 15.98C901.036 15.94 900.77 15.92 900.503 15.92C899.783 15.92 899.183 16.06 898.703 16.34C898.223 16.6067 897.963 17.12 897.923 17.88H896.223C896.25 17.24 896.383 16.7 896.623 16.26C896.863 15.82 897.183 15.4667 897.583 15.2C897.983 14.92 898.436 14.72 898.943 14.6C899.463 14.48 900.016 14.42 900.603 14.42C901.07 14.42 901.53 14.4533 901.983 14.52C902.45 14.5867 902.87 14.7267 903.243 14.94C903.616 15.14 903.916 15.4267 904.143 15.8C904.37 16.1733 904.483 16.66 904.483 17.26V22.58C904.483 22.98 904.503 23.2733 904.543 23.46C904.596 23.6467 904.756 23.74 905.023 23.74C905.143 23.74 905.316 23.7067 905.543 23.64V24.96C905.25 25.1333 904.843 25.22 904.323 25.22C903.883 25.22 903.53 25.1 903.263 24.86C903.01 24.6067 902.883 24.2 902.883 23.64C902.416 24.2 901.87 24.6067 901.243 24.86C900.63 25.1 899.963 25.22 899.243 25.22ZM899.623 23.74C900.183 23.74 900.663 23.6667 901.063 23.52C901.463 23.36 901.79 23.1667 902.043 22.94C902.296 22.7 902.483 22.4467 902.603 22.18C902.723 21.9 902.783 21.64 902.783 21.4V19.66C902.57 19.8333 902.29 19.9533 901.943 20.02C901.596 20.0867 901.23 20.1467 900.843 20.2C900.47 20.2533 900.09 20.3067 899.703 20.36C899.316 20.4133 898.97 20.5067 898.663 20.64C898.356 20.7733 898.103 20.9667 897.903 21.22C897.716 21.46 897.623 21.7933 897.623 22.22C897.623 22.5 897.676 22.74 897.783 22.94C897.903 23.1267 898.05 23.28 898.223 23.4C898.41 23.52 898.623 23.6067 898.863 23.66C899.103 23.7133 899.356 23.74 899.623 23.74ZM909.105 20.96C908.372 20.8533 907.772 20.52 907.305 19.96C906.839 19.4 906.605 18.6933 906.605 17.84C906.605 16.8667 906.892 16.0933 907.465 15.52C908.052 14.9467 908.845 14.66 909.845 14.66H915.085V25H913.385V21.02H911.125L907.965 25H905.705L909.105 20.96ZM913.385 19.56V16.16H910.385C909.665 16.16 909.145 16.3133 908.825 16.62C908.505 16.9267 908.345 17.34 908.345 17.86C908.345 18.3933 908.505 18.8133 908.825 19.12C909.145 19.4133 909.665 19.56 910.385 19.56H913.385Z" fill="#1A1A1A"/>
</svg>
